<?xml version="1.0" encoding="UTF-8"?>
<svg xmlns="http://www.w3.org/2000/svg" xmlns:xlink="http://www.w3.org/1999/xlink" width="250px" height="153px" viewBox="0 0 249 153" version="1.1">
<g id="surface1">
<path style=" stroke:none;fill-rule:nonzero;fill:rgb(41.960784%,38.039216%,34.901961%);fill-opacity:1;" d="M 1.519531 95.546875 C 0.78125 96.285156 0.488281 97.171875 0.488281 98.207031 L 0.488281 138.539062 C 0.488281 141.195312 0.929688 143.558594 1.886719 145.628906 C 2.773438 147.695312 4.097656 149.320312 5.792969 150.503906 C 7.488281 151.6875 9.402344 152.203125 11.539062 152.203125 L 11.6875 152.203125 C 13.160156 152.203125 14.339844 151.90625 15.296875 151.167969 C 16.179688 150.503906 16.695312 149.617188 16.695312 148.507812 C 16.695312 147.476562 16.328125 146.589844 15.738281 145.851562 C 15.148438 145.183594 14.339844 144.816406 13.382812 144.816406 L 11.539062 144.816406 C 10.433594 144.816406 9.550781 144.226562 8.886719 143.042969 C 8.148438 141.859375 7.855469 140.382812 7.855469 138.539062 L 7.855469 98.207031 C 7.855469 97.171875 7.488281 96.285156 6.824219 95.546875 C 6.085938 94.882812 5.203125 94.511719 4.171875 94.511719 C 3.066406 94.511719 2.183594 94.882812 1.519531 95.546875 Z M 1.519531 95.546875 "/>
<path style=" stroke:none;fill-rule:nonzero;fill:rgb(41.960784%,38.039216%,34.901961%);fill-opacity:1;" d="M 25.886719 112.832031 C 25.152344 113.574219 24.855469 114.457031 24.855469 115.566406 L 24.855469 148.4375 C 24.855469 149.546875 25.152344 150.433594 25.886719 151.171875 C 26.625 151.910156 27.507812 152.207031 28.613281 152.207031 C 29.71875 152.207031 30.601562 151.910156 31.339844 151.171875 C 32.003906 150.433594 32.371094 149.546875 32.371094 148.4375 L 32.371094 115.566406 C 32.371094 114.457031 32.003906 113.574219 31.339844 112.832031 C 30.601562 112.167969 29.71875 111.800781 28.613281 111.800781 C 27.507812 111.800781 26.625 112.167969 25.886719 112.832031 Z M 32.003906 96.953125 C 31.042969 95.992188 29.9375 95.476562 28.613281 95.476562 C 27.285156 95.476562 26.109375 95.992188 25.152344 96.953125 C 24.191406 97.914062 23.75 99.019531 23.75 100.351562 C 23.75 101.679688 24.191406 102.863281 25.152344 103.820312 C 26.109375 104.78125 27.285156 105.226562 28.613281 105.226562 C 29.9375 105.226562 31.042969 104.78125 32.003906 103.820312 C 32.960938 102.863281 33.476562 101.679688 33.476562 100.351562 C 33.476562 99.019531 32.960938 97.914062 32.003906 96.953125 Z M 32.003906 96.953125 "/>
<path style=" stroke:none;fill-rule:nonzero;fill:rgb(41.960784%,38.039216%,34.901961%);fill-opacity:1;" d="M 81.269531 146.511719 C 77.292969 150.574219 72.503906 152.570312 66.832031 152.570312 C 61.15625 152.570312 56.371094 150.574219 52.390625 146.511719 C 48.414062 142.523438 46.421875 137.722656 46.421875 132.035156 L 46.421875 98.054688 C 46.421875 97.09375 46.71875 96.28125 47.453125 95.542969 C 48.117188 94.878906 48.929688 94.507812 49.960938 94.507812 C 50.917969 94.507812 51.726562 94.878906 52.390625 95.542969 C 53.128906 96.28125 53.496094 97.09375 53.496094 98.054688 L 53.496094 116.523438 C 57.253906 113.199219 61.746094 111.574219 66.832031 111.574219 C 72.503906 111.574219 77.292969 113.566406 81.269531 117.554688 C 85.25 121.542969 87.3125 126.421875 87.3125 132.035156 C 87.3125 137.722656 85.25 142.523438 81.269531 146.511719 Z M 66.828125 118.664062 C 63.144531 118.664062 59.976562 119.992188 57.398438 122.578125 C 54.746094 125.164062 53.492188 128.339844 53.492188 132.035156 C 53.492188 135.726562 54.746094 138.902344 57.398438 141.5625 C 59.976562 144.148438 63.144531 145.476562 66.828125 145.476562 C 70.511719 145.476562 73.679688 144.148438 76.257812 141.5625 C 78.910156 138.902344 80.238281 135.726562 80.238281 132.035156 C 80.238281 128.339844 78.910156 125.164062 76.257812 122.578125 C 73.679688 119.992188 70.511719 118.664062 66.828125 118.664062 Z M 66.828125 118.664062 "/>
<path style=" stroke:none;fill-rule:nonzero;fill:rgb(41.960784%,38.039216%,34.901961%);fill-opacity:1;" d="M 150.089844 115.121094 C 146.996094 112.015625 143.238281 110.464844 138.820312 110.464844 C 134.398438 110.464844 130.640625 112.015625 127.546875 115.121094 C 127.179688 115.488281 126.882812 115.859375 126.515625 116.226562 C 126.21875 115.859375 125.851562 115.488281 125.558594 115.121094 C 122.390625 112.015625 118.632812 110.464844 114.210938 110.464844 C 109.792969 110.464844 106.035156 112.015625 102.941406 115.121094 C 99.84375 118.296875 98.296875 122.0625 98.296875 126.496094 L 98.296875 148.65625 C 98.296875 149.6875 98.59375 150.5 99.328125 151.242188 C 100.066406 151.980469 100.949219 152.347656 101.980469 152.347656 C 102.941406 152.347656 103.824219 151.980469 104.558594 151.242188 C 105.296875 150.5 105.664062 149.6875 105.664062 148.65625 L 105.664062 126.496094 C 105.664062 124.132812 106.476562 122.0625 108.171875 120.363281 C 109.863281 118.664062 111.855469 117.851562 114.210938 117.851562 C 116.644531 117.851562 118.632812 118.664062 120.328125 120.363281 C 122.019531 122.0625 122.832031 124.132812 122.832031 126.496094 L 122.832031 148.65625 C 122.832031 149.6875 123.199219 150.5 123.9375 151.242188 C 124.671875 151.980469 125.484375 152.347656 126.515625 152.347656 C 127.546875 152.347656 128.429688 151.980469 129.09375 151.242188 C 129.832031 150.5 130.199219 149.6875 130.199219 148.65625 L 130.199219 126.496094 C 130.199219 124.945312 130.566406 123.464844 131.378906 122.136719 C 132.113281 120.808594 133.144531 119.773438 134.472656 119.035156 C 135.796875 118.222656 137.269531 117.851562 138.816406 117.851562 C 141.175781 117.851562 143.238281 118.664062 144.859375 120.363281 C 146.554688 122.0625 147.4375 124.132812 147.4375 126.496094 L 147.4375 148.65625 C 147.4375 149.6875 147.734375 150.5 148.46875 151.242188 C 149.207031 151.980469 150.089844 152.347656 151.121094 152.347656 C 152.078125 152.347656 152.964844 151.980469 153.699219 151.242188 C 154.4375 150.5 154.804688 149.6875 154.804688 148.65625 L 154.804688 126.496094 C 154.804688 122.0625 153.183594 118.296875 150.089844 115.121094 Z M 150.089844 115.121094 "/>
<path style=" stroke:none;fill-rule:nonzero;fill:rgb(41.960784%,38.039216%,34.901961%);fill-opacity:1;" d="M 199.632812 118.148438 C 195.804688 113.714844 190.941406 111.5 185.195312 111.5 C 181.363281 111.5 177.902344 112.386719 174.878906 114.160156 C 171.785156 115.929688 169.429688 118.371094 167.734375 121.472656 C 166.039062 124.574219 165.230469 128.121094 165.230469 132.035156 C 165.230469 135.875 166.039062 139.421875 167.808594 142.523438 C 169.578125 145.625 172.007812 148.0625 175.101562 149.835938 C 178.195312 151.609375 181.660156 152.496094 185.5625 152.496094 C 190.867188 152.496094 195.289062 150.871094 198.824219 147.546875 C 199.414062 146.957031 199.707031 146.289062 199.707031 145.550781 C 199.707031 144.59375 199.191406 143.707031 198.308594 142.894531 C 197.71875 142.449219 197.054688 142.226562 196.394531 142.226562 C 195.507812 142.226562 194.550781 142.597656 193.667969 143.261719 C 191.605469 145.035156 188.878906 145.847656 185.5625 145.847656 C 182.984375 145.847656 180.699219 145.257812 178.710938 144.074219 C 176.722656 142.894531 175.175781 141.269531 174.070312 139.199219 C 172.964844 137.132812 172.449219 134.695312 172.449219 132.035156 C 172.449219 127.898438 173.628906 124.5 175.984375 121.988281 C 178.34375 119.476562 181.363281 118.148438 185.195312 118.148438 C 187.035156 118.148438 188.65625 118.515625 190.132812 119.109375 C 191.605469 119.699219 192.929688 120.660156 194.183594 121.988281 C 194.921875 122.875 195.878906 123.316406 197.054688 123.316406 C 197.644531 123.316406 198.234375 123.171875 198.75 122.800781 C 199.78125 122.0625 200.371094 121.175781 200.371094 120.066406 C 200.371094 119.328125 200.078125 118.738281 199.636719 118.148438 Z M 199.632812 118.148438 "/>
<path style=" stroke:none;fill-rule:nonzero;fill:rgb(41.960784%,38.039216%,34.901961%);fill-opacity:1;" d="M 244.835938 111.648438 C 243.804688 111.648438 242.917969 112.015625 242.183594 112.757812 C 241.445312 113.496094 241.152344 114.308594 241.152344 115.339844 L 241.152344 133.734375 C 241.152344 136.910156 239.972656 139.644531 237.761719 141.859375 C 235.476562 144.148438 232.824219 145.257812 229.660156 145.257812 C 226.492188 145.257812 223.839844 144.148438 221.554688 141.859375 C 219.34375 139.644531 218.238281 136.910156 218.238281 133.734375 L 218.238281 115.339844 C 218.238281 114.308594 217.871094 113.496094 217.132812 112.757812 C 216.398438 112.015625 215.585938 111.648438 214.554688 111.648438 C 213.523438 111.648438 212.640625 112.015625 211.902344 112.757812 C 211.167969 113.496094 210.871094 114.308594 210.871094 115.339844 L 210.871094 133.734375 C 210.871094 138.980469 212.640625 143.410156 216.324219 147.105469 C 220.007812 150.796875 224.425781 152.644531 229.660156 152.644531 C 234.816406 152.644531 239.308594 150.796875 242.992188 147.105469 C 246.675781 143.410156 248.519531 138.980469 248.519531 133.734375 L 248.519531 115.339844 C 248.519531 114.308594 248.148438 113.496094 247.414062 112.757812 C 246.675781 112.015625 245.867188 111.648438 244.835938 111.648438 Z M 244.835938 111.648438 "/>
<path style=" stroke:none;fill-rule:nonzero;fill:rgb(45.882353%,72.941176%,0%);fill-opacity:1;" d="M 124.4375 0.855469 C 123.769531 0.847656 123.128906 0.847656 123.019531 0.855469 C 122.90625 0.859375 122.566406 0.875 122.265625 0.890625 C 121.960938 0.90625 121.496094 0.933594 121.230469 0.957031 C 120.960938 0.976562 120.484375 1.023438 120.167969 1.058594 C 119.851562 1.09375 119.382812 1.148438 119.121094 1.183594 C 118.863281 1.222656 118.441406 1.285156 118.1875 1.328125 C 117.9375 1.367188 117.515625 1.445312 117.257812 1.492188 C 116.996094 1.542969 116.527344 1.640625 116.210938 1.710938 C 115.894531 1.785156 115.410156 1.898438 115.136719 1.96875 C 114.863281 2.039062 114.402344 2.164062 114.113281 2.246094 C 113.824219 2.328125 113.367188 2.46875 113.09375 2.554688 C 112.816406 2.640625 112.316406 2.8125 111.980469 2.933594 C 111.644531 3.050781 111.058594 3.273438 110.675781 3.425781 C 110.296875 3.578125 109.722656 3.820312 109.398438 3.964844 C 109.078125 4.109375 108.546875 4.355469 108.222656 4.511719 C 107.902344 4.671875 107.4375 4.90625 107.191406 5.039062 C 106.945312 5.167969 106.585938 5.363281 106.398438 5.46875 C 106.207031 5.574219 105.839844 5.789062 105.582031 5.945312 C 105.320312 6.097656 104.953125 6.324219 104.761719 6.445312 C 104.574219 6.5625 104.210938 6.800781 103.957031 6.96875 C 103.703125 7.140625 103.320312 7.402344 103.101562 7.558594 C 102.882812 7.714844 102.492188 8 102.234375 8.199219 C 101.972656 8.394531 101.570312 8.710938 101.335938 8.898438 C 101.101562 9.085938 100.703125 9.417969 100.449219 9.636719 C 100.195312 9.855469 99.851562 10.15625 99.6875 10.308594 C 99.519531 10.460938 99.15625 10.800781 98.882812 11.066406 C 98.605469 11.332031 98.160156 11.777344 97.898438 12.054688 C 97.632812 12.332031 97.296875 12.691406 97.148438 12.855469 C 97 13.019531 96.710938 13.347656 96.507812 13.585938 C 96.300781 13.824219 95.941406 14.261719 95.703125 14.554688 C 95.46875 14.851562 95.113281 15.3125 94.914062 15.582031 C 94.714844 15.847656 94.378906 16.316406 94.164062 16.625 C 93.953125 16.929688 93.65625 17.371094 93.507812 17.609375 C 93.355469 17.847656 93.125 18.214844 92.996094 18.425781 C 92.867188 18.636719 92.648438 19.011719 92.507812 19.257812 C 92.363281 19.503906 92.144531 19.902344 92.015625 20.140625 C 91.886719 20.378906 91.636719 20.863281 91.464844 21.21875 C 91.292969 21.570312 91.0625 22.054688 90.953125 22.292969 C 90.84375 22.53125 90.648438 22.980469 90.519531 23.292969 C 90.390625 23.601562 90.183594 24.113281 90.0625 24.433594 C 89.941406 24.75 89.738281 25.320312 89.613281 25.699219 C 89.484375 26.082031 89.304688 26.644531 89.210938 26.957031 C 89.121094 27.265625 88.992188 27.726562 88.921875 27.980469 C 88.855469 28.234375 88.742188 28.6875 88.671875 28.992188 C 88.597656 29.292969 88.488281 29.796875 88.425781 30.105469 C 88.363281 30.417969 88.265625 30.945312 88.210938 31.285156 C 88.152344 31.621094 88.082031 32.066406 88.054688 32.269531 C 88.027344 32.476562 87.980469 32.839844 87.953125 33.078125 C 87.925781 33.316406 87.882812 33.699219 87.863281 33.921875 C 87.839844 34.148438 87.804688 34.582031 87.785156 34.882812 C 87.765625 35.1875 87.734375 35.875 87.714844 36.414062 C 87.691406 37.167969 87.691406 37.609375 87.714844 38.359375 C 87.734375 38.890625 87.765625 39.578125 87.785156 39.878906 C 87.804688 40.183594 87.839844 40.613281 87.863281 40.839844 C 87.882812 41.066406 87.917969 41.398438 87.9375 41.582031 C 87.960938 41.765625 88.007812 42.128906 88.042969 42.390625 C 88.078125 42.652344 88.148438 43.105469 88.195312 43.402344 C 88.246094 43.699219 88.332031 44.175781 88.386719 44.464844 C 88.445312 44.753906 88.542969 45.214844 88.605469 45.488281 C 88.667969 45.765625 88.777344 46.214844 88.847656 46.488281 C 88.917969 46.761719 89.050781 47.246094 89.140625 47.566406 C 89.234375 47.882812 89.40625 48.441406 89.527344 48.808594 C 89.648438 49.171875 89.859375 49.773438 89.996094 50.140625 C 90.132812 50.503906 90.316406 50.976562 90.402344 51.191406 C 90.488281 51.402344 90.675781 51.839844 90.820312 52.164062 C 90.960938 52.488281 91.277344 53.148438 91.519531 53.636719 C 91.761719 54.121094 92.09375 54.761719 92.257812 55.058594 C 92.421875 55.355469 92.710938 55.855469 92.902344 56.171875 C 93.089844 56.488281 93.449219 57.054688 93.691406 57.425781 C 93.9375 57.800781 94.269531 58.285156 94.421875 58.503906 C 94.578125 58.722656 94.839844 59.082031 95.007812 59.304688 C 95.171875 59.523438 95.46875 59.90625 95.660156 60.148438 C 95.855469 60.390625 96.152344 60.753906 96.316406 60.949219 C 96.484375 61.148438 96.796875 61.503906 97.007812 61.746094 C 97.222656 61.984375 97.617188 62.40625 97.878906 62.683594 C 98.144531 62.964844 98.582031 63.402344 98.851562 63.660156 C 99.121094 63.917969 99.503906 64.277344 99.707031 64.464844 C 99.910156 64.648438 100.253906 64.949219 100.46875 65.136719 C 100.6875 65.324219 101.089844 65.660156 101.363281 65.878906 C 101.640625 66.101562 102.046875 66.417969 102.273438 66.589844 C 102.496094 66.757812 102.875 67.035156 103.113281 67.207031 C 103.355469 67.375 103.820312 67.691406 104.148438 67.910156 C 104.480469 68.128906 104.933594 68.421875 105.160156 68.558594 C 105.382812 68.699219 105.792969 68.9375 106.066406 69.097656 C 106.339844 69.253906 106.738281 69.476562 106.957031 69.59375 C 107.171875 69.710938 107.675781 69.96875 108.082031 70.167969 C 108.484375 70.371094 109.078125 70.652344 109.402344 70.792969 C 109.722656 70.9375 110.183594 71.132812 110.421875 71.230469 C 110.660156 71.328125 111.09375 71.496094 111.378906 71.605469 C 111.667969 71.714844 112.242188 71.917969 112.65625 72.058594 C 113.074219 72.195312 113.675781 72.386719 114 72.480469 C 114.324219 72.570312 114.875 72.722656 115.230469 72.8125 C 115.585938 72.902344 116.140625 73.03125 116.46875 73.101562 C 116.796875 73.171875 117.285156 73.269531 117.550781 73.320312 C 117.816406 73.371094 118.265625 73.445312 118.546875 73.488281 C 118.828125 73.53125 119.28125 73.59375 119.554688 73.628906 C 119.832031 73.664062 120.289062 73.71875 120.578125 73.746094 C 120.867188 73.773438 121.347656 73.8125 121.652344 73.835938 C 121.953125 73.855469 122.640625 73.886719 123.175781 73.902344 C 123.921875 73.925781 124.375 73.925781 125.105469 73.902344 C 125.628906 73.886719 126.304688 73.855469 126.609375 73.835938 C 126.910156 73.8125 127.347656 73.777344 127.578125 73.757812 C 127.8125 73.734375 128.234375 73.691406 128.519531 73.65625 C 128.800781 73.621094 129.273438 73.558594 129.566406 73.515625 C 129.855469 73.46875 130.347656 73.390625 130.65625 73.332031 C 130.96875 73.277344 131.425781 73.183594 131.679688 73.128906 C 131.933594 73.078125 132.339844 72.984375 132.585938 72.925781 C 132.832031 72.867188 133.207031 72.773438 133.417969 72.71875 C 133.628906 72.660156 134.058594 72.539062 134.375 72.449219 C 134.691406 72.355469 135.253906 72.179688 135.628906 72.054688 C 136 71.929688 136.566406 71.730469 136.890625 71.609375 C 137.210938 71.488281 137.695312 71.296875 137.960938 71.1875 C 138.230469 71.074219 138.664062 70.890625 138.921875 70.773438 C 139.183594 70.660156 139.777344 70.375 140.238281 70.148438 C 140.703125 69.917969 141.34375 69.582031 141.664062 69.40625 C 141.984375 69.226562 142.472656 68.945312 142.75 68.78125 C 143.027344 68.613281 143.484375 68.328125 143.765625 68.148438 C 144.046875 67.96875 144.519531 67.65625 144.8125 67.449219 C 145.109375 67.246094 145.589844 66.898438 145.886719 66.675781 C 146.183594 66.453125 146.636719 66.101562 146.894531 65.894531 C 147.15625 65.683594 147.558594 65.351562 147.789062 65.152344 C 148.019531 64.953125 148.394531 64.621094 148.621094 64.417969 C 148.84375 64.214844 149.3125 63.765625 149.664062 63.421875 C 150.011719 63.078125 150.496094 62.582031 150.742188 62.320312 C 150.984375 62.058594 151.359375 61.644531 151.574219 61.394531 C 151.789062 61.148438 152.140625 60.734375 152.351562 60.472656 C 152.5625 60.214844 152.871094 59.828125 153.03125 59.617188 C 153.195312 59.40625 153.453125 59.0625 153.605469 58.847656 C 153.761719 58.636719 154.011719 58.28125 154.167969 58.054688 C 154.324219 57.828125 154.59375 57.425781 154.765625 57.160156 C 154.9375 56.890625 155.230469 56.417969 155.414062 56.109375 C 155.601562 55.796875 155.878906 55.320312 156.03125 55.046875 C 156.179688 54.769531 156.441406 54.28125 156.605469 53.957031 C 156.773438 53.632812 157.011719 53.140625 157.140625 52.867188 C 157.269531 52.59375 157.449219 52.199219 157.535156 51.996094 C 157.625 51.792969 157.769531 51.457031 157.855469 51.25 C 157.941406 51.042969 158.078125 50.691406 158.164062 50.46875 C 158.25 50.246094 158.410156 49.808594 158.519531 49.5 C 158.628906 49.1875 158.789062 48.710938 158.878906 48.4375 C 158.964844 48.160156 159.101562 47.699219 159.183594 47.410156 C 159.269531 47.121094 159.394531 46.65625 159.464844 46.375 C 159.535156 46.089844 159.65625 45.578125 159.734375 45.234375 C 159.808594 44.886719 159.921875 44.324219 159.988281 43.976562 C 160.050781 43.632812 160.140625 43.074219 160.191406 42.734375 C 160.242188 42.398438 160.304688 41.917969 160.332031 41.671875 C 160.359375 41.425781 160.402344 41.039062 160.421875 40.8125 C 160.445312 40.589844 160.480469 40.15625 160.5 39.855469 C 160.519531 39.550781 160.550781 38.875 160.566406 38.351562 C 160.589844 37.625 160.589844 37.167969 160.566406 36.429688 C 160.550781 35.898438 160.519531 35.210938 160.5 34.910156 C 160.480469 34.605469 160.445312 34.175781 160.421875 33.949219 C 160.402344 33.722656 160.359375 33.335938 160.332031 33.089844 C 160.304688 32.84375 160.242188 32.367188 160.191406 32.027344 C 160.140625 31.6875 160.050781 31.128906 159.988281 30.785156 C 159.921875 30.441406 159.808594 29.867188 159.730469 29.515625 C 159.652344 29.164062 159.53125 28.652344 159.460938 28.375 C 159.394531 28.101562 159.265625 27.636719 159.183594 27.34375 C 159.097656 27.050781 158.960938 26.597656 158.878906 26.332031 C 158.796875 26.070312 158.660156 25.65625 158.574219 25.417969 C 158.492188 25.179688 158.335938 24.746094 158.226562 24.457031 C 158.117188 24.167969 157.925781 23.6875 157.800781 23.386719 C 157.675781 23.085938 157.457031 22.585938 157.316406 22.273438 C 157.175781 21.960938 156.917969 21.421875 156.742188 21.070312 C 156.566406 20.722656 156.292969 20.195312 156.132812 19.902344 C 155.976562 19.609375 155.730469 19.175781 155.585938 18.933594 C 155.445312 18.691406 155.199219 18.289062 155.042969 18.035156 C 154.886719 17.785156 154.582031 17.3125 154.363281 16.992188 C 154.144531 16.667969 153.8125 16.1875 153.621094 15.925781 C 153.433594 15.667969 153.105469 15.234375 152.898438 14.964844 C 152.691406 14.699219 152.34375 14.265625 152.125 14.003906 C 151.910156 13.746094 151.53125 13.304688 151.285156 13.03125 C 151.039062 12.757812 150.625 12.308594 150.359375 12.035156 C 150.097656 11.761719 149.65625 11.320312 149.378906 11.050781 C 149.101562 10.785156 148.679688 10.390625 148.441406 10.175781 C 148.203125 9.960938 147.84375 9.648438 147.648438 9.484375 C 147.453125 9.316406 147.089844 9.019531 146.84375 8.820312 C 146.597656 8.625 146.15625 8.28125 145.859375 8.0625 C 145.566406 7.839844 145.175781 7.554688 144.992188 7.429688 C 144.808594 7.300781 144.390625 7.019531 144.058594 6.800781 C 143.730469 6.582031 143.210938 6.253906 142.910156 6.070312 C 142.605469 5.890625 142.164062 5.628906 141.925781 5.496094 C 141.6875 5.363281 141.238281 5.117188 140.929688 4.957031 C 140.621094 4.792969 140.109375 4.539062 139.792969 4.386719 C 139.476562 4.234375 139 4.015625 138.730469 3.898438 C 138.464844 3.78125 138.035156 3.601562 137.773438 3.496094 C 137.511719 3.386719 137.054688 3.210938 136.75 3.097656 C 136.449219 2.984375 135.9375 2.804688 135.617188 2.695312 C 135.296875 2.589844 134.777344 2.425781 134.46875 2.335938 C 134.15625 2.242188 133.617188 2.09375 133.265625 2.003906 C 132.914062 1.914062 132.453125 1.796875 132.242188 1.75 C 132.03125 1.703125 131.625 1.613281 131.335938 1.554688 C 131.046875 1.496094 130.546875 1.40625 130.222656 1.351562 C 129.902344 1.296875 129.378906 1.214844 129.0625 1.171875 C 128.746094 1.132812 128.324219 1.078125 128.128906 1.054688 C 127.933594 1.035156 127.570312 1 127.324219 0.976562 C 127.078125 0.957031 126.601562 0.921875 126.261719 0.898438 C 125.921875 0.878906 125.109375 0.859375 124.4375 0.851562 Z M 124.039062 7.167969 C 124.546875 7.167969 125.203125 7.175781 125.496094 7.191406 C 125.792969 7.207031 126.257812 7.234375 126.53125 7.257812 C 126.804688 7.277344 127.28125 7.324219 127.589844 7.359375 C 127.902344 7.394531 128.382812 7.457031 128.660156 7.5 C 128.9375 7.542969 129.40625 7.625 129.707031 7.679688 C 130.003906 7.738281 130.480469 7.835938 130.761719 7.898438 C 131.039062 7.960938 131.449219 8.058594 131.667969 8.117188 C 131.886719 8.171875 132.28125 8.285156 132.546875 8.359375 C 132.816406 8.4375 133.289062 8.585938 133.601562 8.691406 C 133.910156 8.792969 134.371094 8.957031 134.621094 9.050781 C 134.871094 9.144531 135.308594 9.316406 135.589844 9.433594 C 135.871094 9.550781 136.292969 9.730469 136.527344 9.839844 C 136.761719 9.945312 137.222656 10.167969 137.550781 10.332031 C 137.875 10.496094 138.332031 10.734375 138.566406 10.859375 C 138.796875 10.988281 139.246094 11.246094 139.5625 11.4375 C 139.878906 11.628906 140.355469 11.925781 140.621094 12.101562 C 140.890625 12.28125 141.261719 12.535156 141.453125 12.667969 C 141.640625 12.804688 142.003906 13.070312 142.257812 13.261719 C 142.511719 13.453125 142.914062 13.769531 143.152344 13.964844 C 143.390625 14.160156 143.761719 14.476562 143.980469 14.667969 C 144.199219 14.859375 144.566406 15.199219 144.796875 15.417969 C 145.03125 15.636719 145.429688 16.03125 145.683594 16.292969 C 145.9375 16.554688 146.324219 16.96875 146.542969 17.210938 C 146.761719 17.457031 147.09375 17.839844 147.28125 18.066406 C 147.46875 18.292969 147.757812 18.652344 147.917969 18.863281 C 148.082031 19.074219 148.34375 19.421875 148.503906 19.640625 C 148.664062 19.859375 148.984375 20.328125 149.21875 20.679688 C 149.449219 21.03125 149.769531 21.53125 149.925781 21.792969 C 150.082031 22.054688 150.3125 22.445312 150.433594 22.664062 C 150.554688 22.882812 150.792969 23.328125 150.957031 23.652344 C 151.125 23.976562 151.367188 24.46875 151.492188 24.75 C 151.621094 25.03125 151.820312 25.480469 151.933594 25.75 C 152.042969 26.019531 152.242188 26.527344 152.375 26.878906 C 152.503906 27.230469 152.683594 27.738281 152.769531 28.003906 C 152.859375 28.273438 152.992188 28.710938 153.070312 28.980469 C 153.144531 29.246094 153.265625 29.691406 153.335938 29.964844 C 153.40625 30.238281 153.519531 30.734375 153.589844 31.0625 C 153.660156 31.390625 153.769531 31.960938 153.832031 32.332031 C 153.894531 32.699219 153.980469 33.285156 154.023438 33.628906 C 154.0625 33.972656 154.117188 34.457031 154.136719 34.703125 C 154.160156 34.949219 154.1875 35.332031 154.203125 35.550781 C 154.21875 35.769531 154.238281 36.398438 154.246094 36.945312 C 154.253906 37.558594 154.25 38.203125 154.230469 38.609375 C 154.214844 38.976562 154.183594 39.496094 154.164062 39.765625 C 154.140625 40.03125 154.101562 40.457031 154.074219 40.710938 C 154.042969 40.964844 153.988281 41.410156 153.945312 41.699219 C 153.90625 41.988281 153.832031 42.453125 153.78125 42.734375 C 153.730469 43.011719 153.648438 43.433594 153.601562 43.667969 C 153.550781 43.902344 153.453125 44.328125 153.378906 44.617188 C 153.308594 44.90625 153.179688 45.398438 153.089844 45.707031 C 153 46.015625 152.867188 46.457031 152.796875 46.679688 C 152.722656 46.90625 152.589844 47.296875 152.496094 47.550781 C 152.40625 47.804688 152.246094 48.230469 152.140625 48.5 C 152.035156 48.765625 151.839844 49.234375 151.707031 49.535156 C 151.574219 49.839844 151.328125 50.363281 151.160156 50.703125 C 150.996094 51.039062 150.734375 51.542969 150.585938 51.816406 C 150.433594 52.089844 150.160156 52.570312 149.972656 52.878906 C 149.789062 53.191406 149.515625 53.632812 149.363281 53.863281 C 149.210938 54.09375 148.96875 54.457031 148.816406 54.671875 C 148.667969 54.882812 148.410156 55.238281 148.246094 55.457031 C 148.082031 55.679688 147.808594 56.03125 147.640625 56.242188 C 147.472656 56.453125 147.191406 56.792969 147.019531 56.996094 C 146.847656 57.195312 146.535156 57.546875 146.332031 57.773438 C 146.125 58 145.714844 58.421875 145.421875 58.71875 C 145.128906 59.011719 144.707031 59.421875 144.480469 59.628906 C 144.253906 59.835938 143.90625 60.144531 143.703125 60.320312 C 143.5 60.496094 143.144531 60.789062 142.910156 60.976562 C 142.675781 61.160156 142.285156 61.460938 142.039062 61.644531 C 141.792969 61.828125 141.425781 62.09375 141.222656 62.234375 C 141.019531 62.378906 140.675781 62.609375 140.457031 62.75 C 140.238281 62.890625 139.867188 63.121094 139.636719 63.261719 C 139.402344 63.402344 139.003906 63.632812 138.753906 63.773438 C 138.503906 63.914062 138.105469 64.128906 137.875 64.25 C 137.644531 64.371094 137.242188 64.566406 136.980469 64.691406 C 136.722656 64.8125 136.234375 65.03125 135.894531 65.175781 C 135.558594 65.320312 135.050781 65.527344 134.765625 65.632812 C 134.480469 65.742188 133.972656 65.921875 133.640625 66.035156 C 133.308594 66.144531 132.8125 66.300781 132.539062 66.378906 C 132.269531 66.457031 131.820312 66.578125 131.542969 66.652344 C 131.265625 66.722656 130.777344 66.835938 130.453125 66.90625 C 130.128906 66.976562 129.59375 67.078125 129.265625 67.136719 C 128.933594 67.191406 128.449219 67.265625 128.183594 67.300781 C 127.917969 67.339844 127.476562 67.390625 127.199219 67.417969 C 126.921875 67.445312 126.449219 67.488281 126.148438 67.507812 C 125.847656 67.53125 125.140625 67.554688 124.578125 67.5625 C 123.945312 67.574219 123.300781 67.566406 122.890625 67.546875 C 122.523438 67.53125 122.011719 67.5 121.753906 67.480469 C 121.492188 67.460938 121.074219 67.421875 120.820312 67.390625 C 120.566406 67.363281 120.195312 67.316406 119.992188 67.289062 C 119.785156 67.261719 119.414062 67.203125 119.160156 67.160156 C 118.90625 67.117188 118.523438 67.046875 118.304688 67.003906 C 118.085938 66.960938 117.660156 66.871094 117.359375 66.800781 C 117.058594 66.730469 116.613281 66.621094 116.375 66.558594 C 116.136719 66.492188 115.699219 66.367188 115.402344 66.277344 C 115.109375 66.1875 114.660156 66.042969 114.40625 65.957031 C 114.15625 65.871094 113.707031 65.707031 113.410156 65.59375 C 113.117188 65.480469 112.640625 65.289062 112.351562 65.164062 C 112.0625 65.039062 111.613281 64.839844 111.355469 64.71875 C 111.09375 64.59375 110.65625 64.378906 110.382812 64.238281 C 110.109375 64.09375 109.703125 63.875 109.476562 63.75 C 109.25 63.621094 108.867188 63.398438 108.621094 63.25 C 108.375 63.101562 107.855469 62.769531 107.472656 62.511719 C 107.085938 62.253906 106.539062 61.871094 106.257812 61.660156 C 105.976562 61.453125 105.574219 61.140625 105.363281 60.972656 C 105.152344 60.804688 104.832031 60.539062 104.648438 60.382812 C 104.464844 60.226562 104.132812 59.933594 103.90625 59.730469 C 103.683594 59.527344 103.203125 59.070312 102.84375 58.707031 C 102.484375 58.347656 102.039062 57.882812 101.847656 57.671875 C 101.660156 57.460938 101.371094 57.128906 101.210938 56.941406 C 101.046875 56.75 100.777344 56.421875 100.609375 56.210938 C 100.4375 56 100.179688 55.664062 100.03125 55.46875 C 99.886719 55.269531 99.652344 54.953125 99.519531 54.761719 C 99.386719 54.574219 99.121094 54.179688 98.929688 53.890625 C 98.742188 53.601562 98.449219 53.136719 98.28125 52.855469 C 98.113281 52.574219 97.882812 52.175781 97.769531 51.972656 C 97.65625 51.765625 97.460938 51.398438 97.332031 51.152344 C 97.203125 50.90625 97 50.488281 96.878906 50.230469 C 96.757812 49.96875 96.539062 49.476562 96.394531 49.140625 C 96.25 48.800781 96.039062 48.277344 95.925781 47.972656 C 95.8125 47.667969 95.636719 47.171875 95.539062 46.871094 C 95.4375 46.570312 95.28125 46.0625 95.191406 45.746094 C 95.097656 45.429688 94.957031 44.894531 94.875 44.554688 C 94.792969 44.214844 94.667969 43.652344 94.597656 43.300781 C 94.527344 42.945312 94.429688 42.398438 94.378906 42.082031 C 94.328125 41.765625 94.261719 41.257812 94.222656 40.957031 C 94.1875 40.652344 94.144531 40.195312 94.121094 39.941406 C 94.101562 39.691406 94.074219 39.273438 94.058594 39.019531 C 94.042969 38.765625 94.027344 38.253906 94.015625 37.882812 C 94.007812 37.503906 94.011719 36.859375 94.03125 36.433594 C 94.042969 36.011719 94.074219 35.429688 94.097656 35.140625 C 94.117188 34.851562 94.164062 34.355469 94.199219 34.039062 C 94.234375 33.722656 94.296875 33.226562 94.339844 32.9375 C 94.382812 32.648438 94.457031 32.191406 94.507812 31.925781 C 94.554688 31.65625 94.648438 31.203125 94.710938 30.914062 C 94.773438 30.625 94.886719 30.144531 94.964844 29.851562 C 95.039062 29.554688 95.164062 29.097656 95.242188 28.835938 C 95.320312 28.570312 95.460938 28.128906 95.550781 27.847656 C 95.644531 27.570312 95.8125 27.09375 95.925781 26.789062 C 96.039062 26.488281 96.222656 26.027344 96.332031 25.765625 C 96.441406 25.503906 96.628906 25.070312 96.753906 24.800781 C 96.875 24.535156 97.09375 24.082031 97.238281 23.792969 C 97.386719 23.503906 97.628906 23.042969 97.78125 22.765625 C 97.933594 22.492188 98.167969 22.082031 98.304688 21.855469 C 98.441406 21.632812 98.675781 21.253906 98.828125 21.019531 C 98.980469 20.78125 99.238281 20.394531 99.40625 20.152344 C 99.574219 19.914062 99.855469 19.523438 100.03125 19.289062 C 100.207031 19.054688 100.488281 18.6875 100.660156 18.476562 C 100.828125 18.265625 101.113281 17.917969 101.296875 17.707031 C 101.476562 17.496094 101.792969 17.136719 102.003906 16.914062 C 102.210938 16.6875 102.648438 16.238281 102.976562 15.910156 C 103.304688 15.585938 103.710938 15.191406 103.882812 15.039062 C 104.050781 14.886719 104.347656 14.621094 104.546875 14.453125 C 104.742188 14.28125 105.085938 13.996094 105.308594 13.816406 C 105.53125 13.636719 105.910156 13.34375 106.152344 13.160156 C 106.390625 12.980469 106.765625 12.710938 106.980469 12.558594 C 107.195312 12.40625 107.570312 12.15625 107.8125 12 C 108.050781 11.84375 108.472656 11.582031 108.75 11.417969 C 109.023438 11.253906 109.417969 11.023438 109.628906 10.90625 C 109.839844 10.789062 110.277344 10.558594 110.601562 10.394531 C 110.921875 10.230469 111.371094 10.011719 111.597656 9.910156 C 111.820312 9.804688 112.167969 9.652344 112.363281 9.566406 C 112.558594 9.484375 112.835938 9.367188 112.976562 9.3125 C 113.117188 9.257812 113.417969 9.140625 113.640625 9.054688 C 113.867188 8.972656 114.234375 8.839844 114.457031 8.761719 C 114.683594 8.6875 115.109375 8.550781 115.402344 8.460938 C 115.699219 8.371094 116.136719 8.242188 116.375 8.179688 C 116.613281 8.117188 117.027344 8.011719 117.296875 7.949219 C 117.5625 7.886719 117.988281 7.796875 118.242188 7.746094 C 118.492188 7.695312 118.871094 7.625 119.082031 7.589844 C 119.292969 7.550781 119.664062 7.496094 119.902344 7.460938 C 120.144531 7.425781 120.546875 7.375 120.796875 7.347656 C 121.050781 7.316406 121.484375 7.277344 121.765625 7.253906 C 122.046875 7.234375 122.46875 7.203125 122.699219 7.195312 C 122.929688 7.183594 123.535156 7.171875 124.039062 7.167969 Z M 119.644531 26.417969 C 119.324219 26.414062 119.019531 26.414062 118.96875 26.417969 C 118.917969 26.425781 118.769531 26.441406 118.636719 26.457031 C 118.503906 26.472656 118.253906 26.511719 118.085938 26.546875 C 117.917969 26.578125 117.636719 26.648438 117.46875 26.695312 C 117.296875 26.746094 117.011719 26.847656 116.828125 26.917969 C 116.648438 26.988281 116.355469 27.125 116.171875 27.21875 C 115.988281 27.3125 115.679688 27.496094 115.488281 27.625 C 115.296875 27.75 115.023438 27.953125 114.875 28.074219 C 114.730469 28.195312 114.457031 28.453125 114.265625 28.648438 C 114.078125 28.847656 113.832031 29.125 113.722656 29.269531 C 113.613281 29.414062 113.433594 29.667969 113.328125 29.832031 C 113.222656 29.996094 113.054688 30.304688 112.949219 30.515625 C 112.847656 30.726562 112.722656 31.007812 112.671875 31.132812 C 112.625 31.265625 112.542969 31.507812 112.492188 31.679688 C 112.441406 31.851562 112.371094 32.125 112.335938 32.289062 C 112.304688 32.457031 112.257812 32.734375 112.234375 32.910156 C 112.207031 33.125 112.191406 33.511719 112.183594 34.078125 C 112.175781 34.542969 112.152344 36.324219 112.132812 38.035156 L 112.089844 41.144531 L 112.042969 41.332031 C 112.015625 41.4375 111.945312 41.617188 111.886719 41.730469 C 111.816406 41.867188 111.714844 42.007812 111.601562 42.128906 C 111.503906 42.230469 111.34375 42.363281 111.242188 42.425781 C 111.140625 42.488281 110.976562 42.566406 110.878906 42.605469 C 110.777344 42.640625 110.597656 42.683594 110.480469 42.699219 C 110.320312 42.71875 110.210938 42.71875 110.058594 42.699219 C 109.941406 42.683594 109.789062 42.648438 109.710938 42.621094 C 109.636719 42.597656 109.523438 42.550781 109.460938 42.519531 C 109.398438 42.484375 109.300781 42.425781 109.242188 42.386719 C 109.179688 42.34375 109.074219 42.25 109 42.179688 C 108.929688 42.105469 108.820312 41.972656 108.761719 41.878906 C 108.703125 41.785156 108.628906 41.652344 108.601562 41.578125 C 108.570312 41.507812 108.523438 41.378906 108.5 41.296875 L 108.457031 41.148438 L 108.441406 36.371094 L 108.429688 31.59375 L 108.367188 31.378906 C 108.335938 31.257812 108.273438 31.078125 108.230469 30.980469 C 108.1875 30.878906 108.109375 30.722656 108.058594 30.632812 C 108.003906 30.539062 107.929688 30.425781 107.894531 30.375 C 107.855469 30.324219 107.738281 30.195312 107.628906 30.085938 C 107.523438 29.972656 107.332031 29.816406 107.207031 29.734375 C 107.082031 29.652344 106.894531 29.546875 106.789062 29.503906 C 106.683594 29.460938 106.511719 29.402344 106.402344 29.375 C 106.296875 29.347656 106.089844 29.3125 105.949219 29.300781 C 105.804688 29.289062 105.589844 29.289062 105.449219 29.300781 C 105.3125 29.316406 105.101562 29.355469 104.980469 29.390625 C 104.855469 29.425781 104.671875 29.496094 104.566406 29.542969 C 104.464844 29.589844 104.292969 29.691406 104.183594 29.765625 C 104.074219 29.839844 103.898438 29.988281 103.792969 30.09375 C 103.6875 30.203125 103.546875 30.371094 103.480469 30.46875 C 103.417969 30.566406 103.328125 30.714844 103.285156 30.804688 C 103.238281 30.894531 103.167969 31.066406 103.128906 31.191406 C 103.085938 31.3125 103.042969 31.503906 103.027344 31.617188 C 103.003906 31.765625 103 33.222656 103.003906 36.804688 L 103.015625 41.789062 L 103.058594 42.058594 C 103.085938 42.203125 103.132812 42.457031 103.167969 42.617188 C 103.203125 42.777344 103.265625 43.015625 103.304688 43.144531 C 103.34375 43.269531 103.410156 43.460938 103.449219 43.570312 C 103.484375 43.675781 103.570312 43.875 103.632812 44.015625 C 103.695312 44.15625 103.808594 44.386719 103.886719 44.527344 C 103.964844 44.671875 104.113281 44.914062 104.214844 45.074219 C 104.320312 45.230469 104.511719 45.488281 104.640625 45.648438 C 104.769531 45.808594 104.992188 46.054688 105.132812 46.195312 C 105.273438 46.335938 105.519531 46.558594 105.675781 46.6875 C 105.835938 46.816406 106.09375 47.007812 106.253906 47.113281 C 106.410156 47.21875 106.664062 47.375 106.820312 47.460938 C 106.972656 47.542969 107.234375 47.671875 107.394531 47.738281 C 107.554688 47.808594 107.832031 47.914062 108.007812 47.972656 C 108.183594 48.027344 108.449219 48.105469 108.59375 48.140625 C 108.742188 48.175781 109.023438 48.230469 109.222656 48.261719 C 109.523438 48.308594 109.683594 48.316406 110.269531 48.316406 C 110.855469 48.316406 111.011719 48.308594 111.328125 48.261719 C 111.527344 48.230469 111.867188 48.160156 112.082031 48.105469 C 112.292969 48.050781 112.617188 47.949219 112.796875 47.882812 C 112.980469 47.816406 113.320312 47.664062 113.550781 47.546875 C 113.785156 47.433594 114.128906 47.234375 114.320312 47.109375 C 114.507812 46.984375 114.789062 46.777344 114.945312 46.652344 C 115.097656 46.523438 115.347656 46.300781 115.496094 46.152344 C 115.644531 46.003906 115.867188 45.757812 115.992188 45.605469 C 116.117188 45.453125 116.320312 45.175781 116.449219 44.980469 C 116.578125 44.789062 116.765625 44.46875 116.863281 44.273438 C 116.964844 44.074219 117.097656 43.78125 117.164062 43.621094 C 117.226562 43.457031 117.316406 43.1875 117.367188 43.019531 C 117.414062 42.847656 117.480469 42.585938 117.511719 42.429688 C 117.542969 42.277344 117.585938 42.023438 117.605469 41.867188 C 117.636719 41.636719 117.648438 40.832031 117.667969 37.613281 L 117.691406 33.640625 L 117.742188 33.4375 C 117.769531 33.324219 117.832031 33.152344 117.882812 33.050781 C 117.929688 32.953125 118.023438 32.804688 118.09375 32.71875 C 118.160156 32.636719 118.28125 32.511719 118.363281 32.445312 C 118.445312 32.382812 118.582031 32.292969 118.664062 32.246094 C 118.746094 32.203125 118.878906 32.144531 118.957031 32.117188 C 119.039062 32.089844 119.195312 32.054688 119.3125 32.039062 C 119.449219 32.023438 119.585938 32.023438 119.71875 32.039062 C 119.828125 32.054688 119.996094 32.09375 120.097656 32.128906 C 120.195312 32.164062 120.339844 32.230469 120.417969 32.277344 C 120.5 32.324219 120.652344 32.445312 120.757812 32.554688 C 120.878906 32.671875 121 32.820312 121.074219 32.949219 C 121.140625 33.0625 121.222656 33.246094 121.261719 33.359375 L 121.328125 33.566406 L 121.347656 35.113281 C 121.355469 35.96875 121.371094 37.648438 121.382812 38.855469 C 121.390625 40.058594 121.410156 41.222656 121.421875 41.441406 C 121.4375 41.660156 121.464844 41.953125 121.484375 42.089844 C 121.507812 42.230469 121.554688 42.476562 121.589844 42.640625 C 121.625 42.804688 121.710938 43.109375 121.777344 43.3125 C 121.847656 43.515625 121.964844 43.824219 122.042969 43.996094 C 122.117188 44.164062 122.242188 44.414062 122.316406 44.546875 C 122.390625 44.675781 122.535156 44.914062 122.636719 45.066406 C 122.738281 45.222656 122.902344 45.445312 122.996094 45.566406 C 123.089844 45.6875 123.335938 45.953125 123.539062 46.160156 C 123.746094 46.363281 124.03125 46.625 124.171875 46.738281 C 124.316406 46.851562 124.546875 47.019531 124.683594 47.109375 C 124.820312 47.203125 125.042969 47.335938 125.171875 47.410156 C 125.300781 47.484375 125.542969 47.605469 125.707031 47.679688 C 125.871094 47.753906 126.144531 47.863281 126.3125 47.921875 C 126.480469 47.980469 126.75 48.0625 126.914062 48.105469 C 127.074219 48.144531 127.339844 48.203125 127.503906 48.230469 C 127.664062 48.257812 127.953125 48.292969 128.140625 48.308594 C 128.355469 48.328125 128.667969 48.335938 128.972656 48.324219 C 129.238281 48.316406 129.578125 48.292969 129.726562 48.269531 C 129.871094 48.25 130.113281 48.207031 130.261719 48.175781 C 130.410156 48.148438 130.675781 48.078125 130.855469 48.023438 C 131.035156 47.972656 131.316406 47.875 131.480469 47.808594 C 131.648438 47.742188 131.902344 47.625 132.050781 47.550781 C 132.199219 47.476562 132.445312 47.339844 132.597656 47.246094 C 132.75 47.152344 133.003906 46.980469 133.160156 46.863281 C 133.316406 46.742188 133.558594 46.542969 133.699219 46.417969 C 133.839844 46.292969 134.039062 46.089844 134.148438 45.972656 C 134.253906 45.855469 134.417969 45.660156 134.515625 45.542969 C 134.609375 45.421875 134.769531 45.199219 134.875 45.042969 C 134.976562 44.886719 135.128906 44.632812 135.214844 44.476562 C 135.300781 44.324219 135.425781 44.0625 135.496094 43.902344 C 135.5625 43.738281 135.667969 43.460938 135.726562 43.285156 C 135.785156 43.109375 135.859375 42.84375 135.894531 42.691406 C 135.933594 42.542969 135.984375 42.265625 136.011719 42.078125 C 136.039062 41.890625 136.066406 41.582031 136.074219 41.390625 C 136.082031 41.199219 136.105469 39.378906 136.128906 37.34375 C 136.160156 34.382812 136.175781 33.605469 136.203125 33.460938 C 136.222656 33.363281 136.292969 33.175781 136.359375 33.039062 C 136.457031 32.835938 136.515625 32.761719 136.699219 32.578125 C 136.820312 32.460938 136.984375 32.324219 137.0625 32.277344 C 137.140625 32.230469 137.289062 32.160156 137.390625 32.128906 C 137.488281 32.09375 137.671875 32.050781 137.796875 32.035156 C 137.976562 32.015625 138.0625 32.019531 138.257812 32.050781 C 138.390625 32.074219 138.574219 32.125 138.671875 32.167969 C 138.765625 32.207031 138.917969 32.292969 139.007812 32.355469 C 139.097656 32.421875 139.242188 32.550781 139.332031 32.648438 C 139.433594 32.761719 139.527344 32.898438 139.601562 33.050781 C 139.664062 33.179688 139.734375 33.351562 139.757812 33.4375 L 139.804688 33.589844 L 139.816406 38.328125 L 139.832031 43.070312 L 139.878906 43.261719 C 139.902344 43.367188 139.96875 43.570312 140.023438 43.710938 C 140.082031 43.855469 140.195312 44.078125 140.28125 44.210938 C 140.371094 44.34375 140.527344 44.539062 140.636719 44.648438 C 140.742188 44.753906 140.929688 44.90625 141.054688 44.988281 C 141.175781 45.070312 141.367188 45.175781 141.480469 45.222656 C 141.59375 45.269531 141.78125 45.335938 141.894531 45.367188 C 142.074219 45.417969 142.167969 45.425781 142.5625 45.425781 L 143.023438 45.425781 L 143.265625 45.355469 C 143.398438 45.320312 143.589844 45.253906 143.683594 45.210938 C 143.78125 45.167969 143.953125 45.070312 144.066406 44.996094 C 144.183594 44.921875 144.347656 44.792969 144.4375 44.710938 C 144.523438 44.628906 144.664062 44.46875 144.75 44.355469 C 144.835938 44.242188 144.953125 44.050781 145.015625 43.929688 C 145.074219 43.808594 145.148438 43.632812 145.179688 43.542969 C 145.207031 43.453125 145.25 43.277344 145.273438 43.15625 C 145.308594 42.960938 145.3125 42.460938 145.300781 38.53125 C 145.292969 36.109375 145.289062 33.984375 145.289062 33.808594 C 145.289062 33.632812 145.277344 33.339844 145.261719 33.15625 C 145.246094 32.972656 145.210938 32.6875 145.183594 32.527344 C 145.15625 32.363281 145.109375 32.132812 145.078125 32.015625 C 145.050781 31.894531 144.996094 31.699219 144.960938 31.578125 C 144.925781 31.460938 144.832031 31.207031 144.757812 31.015625 C 144.679688 30.824219 144.542969 30.527344 144.453125 30.351562 C 144.359375 30.171875 144.191406 29.886719 144.070312 29.710938 C 143.953125 29.53125 143.769531 29.28125 143.664062 29.144531 C 143.558594 29.011719 143.339844 28.769531 143.183594 28.609375 C 143.023438 28.449219 142.78125 28.222656 142.640625 28.101562 C 142.5 27.984375 142.214844 27.773438 142.007812 27.632812 C 141.800781 27.496094 141.472656 27.300781 141.277344 27.203125 C 141.085938 27.105469 140.8125 26.976562 140.671875 26.921875 C 140.53125 26.867188 140.285156 26.777344 140.125 26.726562 C 139.960938 26.675781 139.664062 26.601562 139.460938 26.558594 C 139.257812 26.515625 138.917969 26.464844 138.707031 26.441406 C 138.421875 26.410156 138.1875 26.402344 137.785156 26.414062 C 137.445312 26.421875 137.125 26.445312 136.90625 26.480469 C 136.714844 26.507812 136.421875 26.566406 136.253906 26.609375 C 136.082031 26.648438 135.820312 26.726562 135.667969 26.777344 C 135.515625 26.828125 135.289062 26.910156 135.167969 26.960938 C 135.046875 27.011719 134.835938 27.109375 134.695312 27.179688 C 134.554688 27.25 134.324219 27.378906 134.183594 27.460938 C 134.042969 27.546875 133.824219 27.691406 133.699219 27.78125 C 133.570312 27.875 133.382812 28.019531 133.277344 28.105469 C 133.171875 28.191406 132.941406 28.40625 132.765625 28.582031 C 132.589844 28.757812 132.355469 29.015625 132.242188 29.15625 C 132.128906 29.296875 131.945312 29.554688 131.828125 29.730469 C 131.710938 29.902344 131.523438 30.238281 131.402344 30.472656 C 131.285156 30.707031 131.136719 31.050781 131.070312 31.234375 C 131 31.414062 130.90625 31.71875 130.859375 31.910156 C 130.8125 32.097656 130.75 32.394531 130.722656 32.5625 C 130.695312 32.734375 130.660156 33.046875 130.644531 33.257812 C 130.632812 33.46875 130.609375 34.789062 130.59375 36.191406 C 130.582031 37.59375 130.570312 39.230469 130.570312 39.832031 C 130.570312 40.472656 130.558594 41.007812 130.539062 41.125 C 130.527344 41.234375 130.480469 41.414062 130.441406 41.523438 C 130.398438 41.636719 130.316406 41.804688 130.25 41.898438 C 130.1875 41.996094 130.074219 42.132812 130 42.203125 C 129.921875 42.277344 129.792969 42.378906 129.710938 42.429688 C 129.632812 42.480469 129.476562 42.558594 129.367188 42.597656 C 129.257812 42.636719 129.070312 42.683594 128.953125 42.699219 C 128.792969 42.71875 128.683594 42.71875 128.523438 42.699219 C 128.40625 42.679688 128.222656 42.636719 128.113281 42.59375 C 128.003906 42.554688 127.847656 42.480469 127.765625 42.425781 C 127.683594 42.371094 127.546875 42.257812 127.460938 42.167969 C 127.375 42.082031 127.253906 41.929688 127.195312 41.832031 C 127.136719 41.730469 127.0625 41.570312 127.027344 41.472656 C 126.992188 41.375 126.957031 41.210938 126.941406 41.105469 C 126.929688 41.003906 126.910156 40.007812 126.902344 38.894531 C 126.890625 37.78125 126.875 36.015625 126.863281 34.972656 C 126.84375 33.523438 126.832031 33.015625 126.800781 32.8125 C 126.78125 32.667969 126.738281 32.425781 126.707031 32.273438 C 126.679688 32.125 126.613281 31.863281 126.566406 31.695312 C 126.515625 31.527344 126.421875 31.253906 126.359375 31.09375 C 126.296875 30.929688 126.160156 30.628906 126.050781 30.417969 C 125.945312 30.210938 125.765625 29.898438 125.652344 29.726562 C 125.539062 29.554688 125.355469 29.300781 125.242188 29.160156 C 125.128906 29.015625 124.886719 28.753906 124.707031 28.570312 C 124.523438 28.386719 124.257812 28.144531 124.117188 28.03125 C 123.976562 27.917969 123.726562 27.734375 123.554688 27.621094 C 123.386719 27.507812 123.074219 27.328125 122.863281 27.21875 C 122.652344 27.113281 122.390625 26.988281 122.277344 26.941406 C 122.164062 26.898438 121.976562 26.824219 121.855469 26.785156 C 121.734375 26.742188 121.476562 26.667969 121.28125 26.621094 C 121.085938 26.570312 120.769531 26.507812 120.578125 26.480469 C 120.328125 26.441406 120.070312 26.425781 119.644531 26.417969 Z M 119.644531 26.417969 "/>
</g>
</svg>
