<?xml version="1.0" encoding="UTF-8"?>
<svg xmlns="http://www.w3.org/2000/svg" xmlns:xlink="http://www.w3.org/1999/xlink" width="239px" height="51px" viewBox="0 0 238 51" version="1.1">
<g id="surface1">
<path style=" stroke:none;fill-rule:nonzero;fill:rgb(80%,80%,80%);fill-opacity:1;" d="M 70.75 6.664062 C 70.257812 7.160156 70.0625 7.753906 70.0625 8.445312 L 70.0625 35.445312 C 70.0625 37.226562 70.355469 38.808594 71 40.195312 C 71.589844 41.578125 72.476562 42.667969 73.613281 43.457031 C 74.75 44.25 76.03125 44.59375 77.460938 44.59375 L 77.558594 44.59375 C 78.546875 44.59375 79.335938 44.398438 79.976562 43.902344 C 80.570312 43.457031 80.914062 42.863281 80.914062 42.121094 C 80.914062 41.429688 80.667969 40.835938 80.273438 40.34375 C 79.878906 39.898438 79.335938 39.648438 78.695312 39.648438 L 77.460938 39.648438 C 76.722656 39.648438 76.128906 39.253906 75.6875 38.460938 C 75.191406 37.671875 74.996094 36.683594 74.996094 35.445312 L 74.996094 8.445312 C 74.996094 7.753906 74.75 7.160156 74.304688 6.664062 C 73.8125 6.21875 73.21875 5.972656 72.527344 5.972656 C 71.789062 5.972656 71.195312 6.21875 70.75 6.664062 Z M 70.75 6.664062 "/>
<path style=" stroke:none;fill-rule:nonzero;fill:rgb(80%,80%,80%);fill-opacity:1;" d="M 87.074219 18.238281 C 86.582031 18.730469 86.382812 19.324219 86.382812 20.066406 L 86.382812 42.074219 C 86.382812 42.816406 86.582031 43.410156 87.074219 43.90625 C 87.570312 44.398438 88.160156 44.597656 88.902344 44.597656 C 89.640625 44.597656 90.234375 44.398438 90.726562 43.90625 C 91.171875 43.410156 91.417969 42.816406 91.417969 42.074219 L 91.417969 20.066406 C 91.417969 19.324219 91.171875 18.730469 90.726562 18.238281 C 90.234375 17.792969 89.640625 17.546875 88.902344 17.546875 C 88.160156 17.546875 87.570312 17.792969 87.074219 18.238281 Z M 91.171875 7.605469 C 90.527344 6.960938 89.789062 6.617188 88.902344 6.617188 C 88.011719 6.617188 87.222656 6.960938 86.582031 7.605469 C 85.941406 8.25 85.644531 8.988281 85.644531 9.878906 C 85.644531 10.769531 85.941406 11.5625 86.582031 12.203125 C 87.222656 12.847656 88.011719 13.144531 88.902344 13.144531 C 89.789062 13.144531 90.527344 12.847656 91.171875 12.203125 C 91.8125 11.5625 92.15625 10.769531 92.15625 9.878906 C 92.15625 8.988281 91.8125 8.246094 91.171875 7.605469 Z M 91.171875 7.605469 "/>
<path style=" stroke:none;fill-rule:nonzero;fill:rgb(80%,80%,80%);fill-opacity:1;" d="M 124.160156 40.785156 C 121.496094 43.503906 118.289062 44.839844 114.492188 44.839844 C 110.691406 44.839844 107.484375 43.503906 104.820312 40.785156 C 102.15625 38.113281 100.824219 34.898438 100.824219 31.09375 L 100.824219 8.34375 C 100.824219 7.699219 101.023438 7.15625 101.515625 6.660156 C 101.960938 6.21875 102.5 5.96875 103.191406 5.96875 C 103.835938 5.96875 104.375 6.21875 104.820312 6.660156 C 105.3125 7.15625 105.5625 7.699219 105.5625 8.34375 L 105.5625 20.707031 C 108.078125 18.480469 111.085938 17.394531 114.492188 17.394531 C 118.289062 17.394531 121.496094 18.730469 124.160156 21.398438 C 126.828125 24.070312 128.207031 27.332031 128.207031 31.09375 C 128.207031 34.898438 126.828125 38.113281 124.160156 40.785156 Z M 114.496094 22.140625 C 112.027344 22.140625 109.90625 23.03125 108.179688 24.761719 C 106.402344 26.492188 105.5625 28.621094 105.5625 31.09375 C 105.5625 33.566406 106.402344 35.691406 108.179688 37.472656 C 109.90625 39.203125 112.027344 40.09375 114.496094 40.09375 C 116.960938 40.09375 119.082031 39.203125 120.808594 37.472656 C 122.585938 35.691406 123.472656 33.566406 123.472656 31.09375 C 123.472656 28.621094 122.585938 26.492188 120.808594 24.761719 C 119.082031 23.03125 116.960938 22.140625 114.496094 22.140625 Z M 114.496094 22.140625 "/>
<path style=" stroke:none;fill-rule:nonzero;fill:rgb(80%,80%,80%);fill-opacity:1;" d="M 170.253906 19.769531 C 168.179688 17.691406 165.664062 16.652344 162.703125 16.652344 C 159.742188 16.652344 157.226562 17.691406 155.152344 19.769531 C 154.90625 20.015625 154.710938 20.261719 154.464844 20.507812 C 154.265625 20.261719 154.019531 20.015625 153.820312 19.769531 C 151.699219 17.691406 149.183594 16.652344 146.222656 16.652344 C 143.261719 16.652344 140.746094 17.691406 138.675781 19.769531 C 136.601562 21.894531 135.566406 24.417969 135.566406 27.382812 L 135.566406 42.21875 C 135.566406 42.914062 135.761719 43.457031 136.257812 43.949219 C 136.75 44.445312 137.34375 44.691406 138.03125 44.691406 C 138.675781 44.691406 139.265625 44.445312 139.757812 43.949219 C 140.253906 43.457031 140.5 42.914062 140.5 42.21875 L 140.5 27.382812 C 140.5 25.800781 141.042969 24.417969 142.175781 23.277344 C 143.3125 22.140625 144.644531 21.597656 146.222656 21.597656 C 147.851562 21.597656 149.183594 22.140625 150.320312 23.277344 C 151.453125 24.417969 151.996094 25.800781 151.996094 27.382812 L 151.996094 42.21875 C 151.996094 42.914062 152.242188 43.457031 152.734375 43.949219 C 153.230469 44.445312 153.773438 44.691406 154.464844 44.691406 C 155.152344 44.691406 155.746094 44.445312 156.191406 43.949219 C 156.683594 43.457031 156.929688 42.914062 156.929688 42.21875 L 156.929688 27.382812 C 156.929688 26.34375 157.175781 25.355469 157.71875 24.464844 C 158.210938 23.574219 158.902344 22.882812 159.792969 22.390625 C 160.679688 21.84375 161.667969 21.597656 162.703125 21.597656 C 164.28125 21.597656 165.664062 22.140625 166.75 23.277344 C 167.882812 24.417969 168.476562 25.800781 168.476562 27.382812 L 168.476562 42.21875 C 168.476562 42.914062 168.671875 43.457031 169.167969 43.949219 C 169.660156 44.445312 170.25 44.691406 170.941406 44.691406 C 171.582031 44.691406 172.175781 44.445312 172.667969 43.949219 C 173.164062 43.457031 173.410156 42.914062 173.410156 42.21875 L 173.410156 27.382812 C 173.410156 24.417969 172.324219 21.894531 170.25 19.769531 Z M 170.253906 19.769531 "/>
<path style=" stroke:none;fill-rule:nonzero;fill:rgb(80%,80%,80%);fill-opacity:1;" d="M 203.433594 21.796875 C 200.867188 18.828125 197.609375 17.34375 193.761719 17.34375 C 191.195312 17.34375 188.878906 17.9375 186.855469 19.125 C 184.78125 20.3125 183.203125 21.945312 182.066406 24.019531 C 180.933594 26.097656 180.390625 28.472656 180.390625 31.09375 C 180.390625 33.664062 180.933594 36.039062 182.117188 38.113281 C 183.300781 40.191406 184.929688 41.824219 187.003906 43.011719 C 189.074219 44.199219 191.394531 44.792969 194.007812 44.792969 C 197.5625 44.792969 200.523438 43.703125 202.890625 41.476562 C 203.285156 41.082031 203.480469 40.636719 203.480469 40.140625 C 203.480469 39.5 203.136719 38.90625 202.542969 38.363281 C 202.148438 38.066406 201.707031 37.917969 201.261719 37.917969 C 200.667969 37.917969 200.027344 38.164062 199.4375 38.609375 C 198.054688 39.796875 196.230469 40.339844 194.007812 40.339844 C 192.28125 40.339844 190.753906 39.945312 189.421875 39.152344 C 188.089844 38.363281 187.050781 37.273438 186.3125 35.890625 C 185.570312 34.503906 185.226562 32.871094 185.226562 31.09375 C 185.226562 28.324219 186.015625 26.046875 187.59375 24.367188 C 189.171875 22.683594 191.195312 21.796875 193.761719 21.796875 C 194.996094 21.796875 196.082031 22.042969 197.066406 22.4375 C 198.054688 22.832031 198.941406 23.476562 199.78125 24.367188 C 200.273438 24.960938 200.917969 25.257812 201.707031 25.257812 C 202.101562 25.257812 202.496094 25.15625 202.839844 24.910156 C 203.53125 24.417969 203.925781 23.824219 203.925781 23.082031 C 203.925781 22.585938 203.730469 22.191406 203.433594 21.796875 Z M 203.433594 21.796875 "/>
<path style=" stroke:none;fill-rule:nonzero;fill:rgb(80%,80%,80%);fill-opacity:1;" d="M 233.707031 17.445312 C 233.015625 17.445312 232.425781 17.691406 231.929688 18.1875 C 231.4375 18.679688 231.242188 19.222656 231.242188 19.917969 L 231.242188 32.230469 C 231.242188 34.355469 230.453125 36.1875 228.972656 37.671875 C 227.441406 39.203125 225.664062 39.945312 223.542969 39.945312 C 221.421875 39.945312 219.644531 39.203125 218.117188 37.671875 C 216.636719 36.1875 215.894531 34.355469 215.894531 32.230469 L 215.894531 19.917969 C 215.894531 19.222656 215.648438 18.679688 215.15625 18.1875 C 214.664062 17.691406 214.121094 17.445312 213.429688 17.445312 C 212.738281 17.445312 212.148438 17.691406 211.652344 18.1875 C 211.160156 18.679688 210.960938 19.222656 210.960938 19.917969 L 210.960938 32.230469 C 210.960938 35.742188 212.148438 38.707031 214.613281 41.183594 C 217.082031 43.65625 220.039062 44.890625 223.542969 44.890625 C 226.996094 44.890625 230.007812 43.65625 232.472656 41.183594 C 234.941406 38.707031 236.175781 35.742188 236.175781 32.230469 L 236.175781 19.917969 C 236.175781 19.222656 235.929688 18.679688 235.433594 18.1875 C 234.941406 17.691406 234.398438 17.445312 233.707031 17.445312 Z M 233.707031 17.445312 "/>
<path style=" stroke:none;fill-rule:nonzero;fill:rgb(45.882353%,72.941176%,0%);fill-opacity:1;" d="M 25.046875 0.976562 C 24.601562 0.972656 24.171875 0.972656 24.097656 0.976562 C 24.023438 0.980469 23.796875 0.988281 23.59375 1 C 23.390625 1.011719 23.078125 1.03125 22.898438 1.042969 C 22.722656 1.058594 22.402344 1.089844 22.191406 1.113281 C 21.976562 1.136719 21.664062 1.175781 21.488281 1.199219 C 21.3125 1.222656 21.03125 1.265625 20.863281 1.292969 C 20.695312 1.320312 20.414062 1.371094 20.238281 1.40625 C 20.066406 1.4375 19.75 1.503906 19.539062 1.550781 C 19.324219 1.597656 19.003906 1.675781 18.820312 1.722656 C 18.636719 1.769531 18.328125 1.851562 18.132812 1.910156 C 17.941406 1.964844 17.632812 2.058594 17.449219 2.117188 C 17.265625 2.171875 16.929688 2.289062 16.707031 2.367188 C 16.480469 2.449219 16.085938 2.597656 15.832031 2.699219 C 15.578125 2.800781 15.195312 2.960938 14.976562 3.058594 C 14.761719 3.15625 14.40625 3.320312 14.191406 3.425781 C 13.972656 3.53125 13.660156 3.691406 13.496094 3.777344 C 13.332031 3.867188 13.09375 3.996094 12.964844 4.066406 C 12.839844 4.136719 12.59375 4.28125 12.417969 4.382812 C 12.246094 4.488281 12 4.636719 11.871094 4.71875 C 11.746094 4.800781 11.503906 4.957031 11.332031 5.070312 C 11.164062 5.183594 10.90625 5.363281 10.757812 5.464844 C 10.613281 5.570312 10.351562 5.761719 10.175781 5.894531 C 10.003906 6.023438 9.734375 6.234375 9.578125 6.359375 C 9.421875 6.488281 9.152344 6.710938 8.984375 6.855469 C 8.8125 7.003906 8.582031 7.203125 8.472656 7.308594 C 8.359375 7.410156 8.117188 7.636719 7.933594 7.8125 C 7.746094 7.992188 7.449219 8.289062 7.273438 8.472656 C 7.097656 8.660156 6.871094 8.902344 6.773438 9.011719 C 6.671875 9.121094 6.480469 9.339844 6.34375 9.5 C 6.207031 9.660156 5.964844 9.953125 5.804688 10.148438 C 5.648438 10.347656 5.40625 10.65625 5.273438 10.835938 C 5.140625 11.015625 4.917969 11.328125 4.773438 11.535156 C 4.632812 11.738281 4.433594 12.035156 4.332031 12.195312 C 4.230469 12.351562 4.078125 12.597656 3.992188 12.738281 C 3.90625 12.882812 3.757812 13.132812 3.664062 13.296875 C 3.570312 13.460938 3.421875 13.726562 3.335938 13.890625 C 3.246094 14.050781 3.082031 14.375 2.964844 14.609375 C 2.851562 14.84375 2.695312 15.167969 2.621094 15.328125 C 2.550781 15.488281 2.417969 15.789062 2.332031 16 C 2.246094 16.207031 2.109375 16.550781 2.027344 16.761719 C 1.945312 16.972656 1.8125 17.355469 1.726562 17.609375 C 1.640625 17.863281 1.519531 18.242188 1.457031 18.449219 C 1.394531 18.660156 1.308594 18.96875 1.261719 19.136719 C 1.21875 19.308594 1.140625 19.613281 1.09375 19.8125 C 1.046875 20.015625 0.972656 20.351562 0.929688 20.558594 C 0.890625 20.769531 0.824219 21.121094 0.785156 21.347656 C 0.746094 21.574219 0.699219 21.871094 0.683594 22.007812 C 0.664062 22.144531 0.632812 22.390625 0.613281 22.550781 C 0.59375 22.710938 0.566406 22.964844 0.554688 23.117188 C 0.539062 23.265625 0.515625 23.554688 0.5 23.757812 C 0.488281 23.960938 0.464844 24.421875 0.457031 24.78125 C 0.4375 25.289062 0.4375 25.582031 0.457031 26.085938 C 0.464844 26.441406 0.488281 26.902344 0.5 27.101562 C 0.515625 27.304688 0.539062 27.59375 0.554688 27.746094 C 0.566406 27.898438 0.589844 28.121094 0.605469 28.242188 C 0.617188 28.367188 0.648438 28.609375 0.671875 28.785156 C 0.695312 28.957031 0.742188 29.261719 0.777344 29.460938 C 0.808594 29.660156 0.867188 29.980469 0.90625 30.171875 C 0.945312 30.367188 1.007812 30.675781 1.050781 30.859375 C 1.09375 31.042969 1.164062 31.34375 1.210938 31.527344 C 1.261719 31.710938 1.347656 32.035156 1.410156 32.25 C 1.472656 32.460938 1.585938 32.835938 1.667969 33.082031 C 1.75 33.324219 1.890625 33.726562 1.980469 33.972656 C 2.074219 34.21875 2.195312 34.535156 2.253906 34.675781 C 2.3125 34.816406 2.4375 35.109375 2.53125 35.328125 C 2.628906 35.542969 2.839844 35.988281 3 36.3125 C 3.164062 36.640625 3.386719 37.066406 3.496094 37.265625 C 3.605469 37.464844 3.800781 37.800781 3.929688 38.011719 C 4.054688 38.222656 4.292969 38.601562 4.457031 38.851562 C 4.621094 39.101562 4.84375 39.425781 4.945312 39.570312 C 5.050781 39.71875 5.226562 39.960938 5.339844 40.109375 C 5.449219 40.253906 5.648438 40.511719 5.777344 40.671875 C 5.90625 40.835938 6.105469 41.078125 6.214844 41.210938 C 6.328125 41.34375 6.535156 41.582031 6.679688 41.742188 C 6.824219 41.902344 7.085938 42.1875 7.261719 42.371094 C 7.441406 42.558594 7.734375 42.851562 7.914062 43.023438 C 8.09375 43.195312 8.351562 43.4375 8.484375 43.5625 C 8.621094 43.683594 8.851562 43.886719 8.996094 44.015625 C 9.144531 44.140625 9.414062 44.363281 9.597656 44.511719 C 9.78125 44.65625 10.054688 44.871094 10.203125 44.984375 C 10.355469 45.097656 10.609375 45.285156 10.769531 45.398438 C 10.929688 45.511719 11.238281 45.722656 11.460938 45.871094 C 11.683594 46.015625 11.988281 46.210938 12.136719 46.304688 C 12.289062 46.398438 12.5625 46.558594 12.746094 46.664062 C 12.929688 46.769531 13.195312 46.917969 13.339844 46.996094 C 13.484375 47.074219 13.824219 47.246094 14.09375 47.382812 C 14.363281 47.515625 14.761719 47.703125 14.976562 47.800781 C 15.195312 47.894531 15.5 48.027344 15.660156 48.09375 C 15.820312 48.160156 16.109375 48.273438 16.304688 48.34375 C 16.496094 48.417969 16.882812 48.554688 17.160156 48.644531 C 17.4375 48.738281 17.839844 48.867188 18.058594 48.929688 C 18.273438 48.992188 18.644531 49.089844 18.882812 49.152344 C 19.121094 49.210938 19.492188 49.300781 19.710938 49.347656 C 19.929688 49.394531 20.257812 49.457031 20.4375 49.492188 C 20.613281 49.523438 20.914062 49.574219 21.101562 49.605469 C 21.292969 49.632812 21.597656 49.675781 21.777344 49.699219 C 21.960938 49.722656 22.269531 49.757812 22.464844 49.777344 C 22.65625 49.796875 22.980469 49.820312 23.183594 49.835938 C 23.386719 49.851562 23.84375 49.871094 24.203125 49.882812 C 24.703125 49.898438 25.007812 49.898438 25.496094 49.882812 C 25.847656 49.871094 26.300781 49.851562 26.503906 49.835938 C 26.703125 49.820312 26.996094 49.800781 27.152344 49.785156 C 27.308594 49.769531 27.589844 49.738281 27.78125 49.714844 C 27.972656 49.691406 28.289062 49.648438 28.484375 49.621094 C 28.679688 49.59375 29.007812 49.539062 29.214844 49.5 C 29.421875 49.460938 29.730469 49.402344 29.898438 49.363281 C 30.066406 49.328125 30.339844 49.265625 30.507812 49.226562 C 30.671875 49.191406 30.921875 49.125 31.0625 49.089844 C 31.203125 49.050781 31.492188 48.96875 31.703125 48.910156 C 31.914062 48.847656 32.292969 48.730469 32.542969 48.644531 C 32.792969 48.5625 33.171875 48.425781 33.386719 48.347656 C 33.601562 48.265625 33.925781 48.136719 34.105469 48.0625 C 34.285156 47.988281 34.574219 47.863281 34.75 47.789062 C 34.925781 47.710938 35.320312 47.519531 35.632812 47.367188 C 35.941406 47.214844 36.371094 46.988281 36.585938 46.871094 C 36.800781 46.753906 37.128906 46.5625 37.3125 46.453125 C 37.5 46.339844 37.804688 46.152344 37.992188 46.03125 C 38.179688 45.910156 38.496094 45.699219 38.695312 45.5625 C 38.890625 45.425781 39.214844 45.191406 39.414062 45.042969 C 39.609375 44.894531 39.914062 44.660156 40.089844 44.519531 C 40.261719 44.378906 40.53125 44.15625 40.6875 44.023438 C 40.84375 43.890625 41.09375 43.667969 41.242188 43.53125 C 41.394531 43.398438 41.707031 43.097656 41.941406 42.863281 C 42.175781 42.632812 42.5 42.300781 42.664062 42.128906 C 42.828125 41.953125 43.078125 41.675781 43.222656 41.507812 C 43.367188 41.34375 43.601562 41.066406 43.742188 40.890625 C 43.886719 40.71875 44.089844 40.460938 44.199219 40.316406 C 44.308594 40.175781 44.480469 39.945312 44.582031 39.804688 C 44.6875 39.664062 44.855469 39.421875 44.960938 39.273438 C 45.0625 39.121094 45.242188 38.851562 45.359375 38.671875 C 45.472656 38.492188 45.671875 38.175781 45.796875 37.96875 C 45.917969 37.761719 46.105469 37.441406 46.207031 37.257812 C 46.308594 37.074219 46.480469 36.746094 46.59375 36.527344 C 46.703125 36.308594 46.863281 35.984375 46.949219 35.796875 C 47.035156 35.613281 47.15625 35.351562 47.214844 35.214844 C 47.273438 35.078125 47.371094 34.855469 47.425781 34.714844 C 47.484375 34.578125 47.578125 34.339844 47.636719 34.191406 C 47.691406 34.042969 47.800781 33.75 47.875 33.542969 C 47.945312 33.335938 48.054688 33.015625 48.113281 32.832031 C 48.171875 32.648438 48.265625 32.339844 48.320312 32.144531 C 48.375 31.953125 48.460938 31.640625 48.507812 31.453125 C 48.554688 31.261719 48.636719 30.917969 48.6875 30.6875 C 48.738281 30.457031 48.8125 30.078125 48.855469 29.847656 C 48.898438 29.617188 48.960938 29.242188 48.992188 29.015625 C 49.027344 28.789062 49.070312 28.46875 49.085938 28.304688 C 49.105469 28.140625 49.132812 27.878906 49.148438 27.730469 C 49.164062 27.578125 49.1875 27.289062 49.199219 27.085938 C 49.214844 26.882812 49.234375 26.429688 49.246094 26.082031 C 49.261719 25.59375 49.261719 25.289062 49.246094 24.792969 C 49.234375 24.4375 49.214844 23.980469 49.199219 23.777344 C 49.183594 23.574219 49.164062 23.285156 49.148438 23.132812 C 49.132812 22.980469 49.105469 22.722656 49.085938 22.558594 C 49.070312 22.394531 49.027344 22.074219 48.992188 21.847656 C 48.960938 21.621094 48.898438 21.246094 48.855469 21.015625 C 48.8125 20.785156 48.738281 20.402344 48.683594 20.164062 C 48.632812 19.929688 48.550781 19.585938 48.503906 19.402344 C 48.457031 19.21875 48.375 18.90625 48.316406 18.710938 C 48.261719 18.515625 48.171875 18.210938 48.113281 18.035156 C 48.058594 17.859375 47.96875 17.582031 47.910156 17.421875 C 47.855469 17.261719 47.75 16.972656 47.675781 16.777344 C 47.605469 16.585938 47.476562 16.261719 47.394531 16.0625 C 47.308594 15.859375 47.164062 15.523438 47.070312 15.316406 C 46.972656 15.109375 46.800781 14.746094 46.683594 14.511719 C 46.566406 14.277344 46.382812 13.925781 46.277344 13.730469 C 46.167969 13.535156 46.003906 13.242188 45.910156 13.082031 C 45.816406 12.917969 45.652344 12.648438 45.546875 12.480469 C 45.441406 12.3125 45.234375 11.996094 45.089844 11.78125 C 44.941406 11.5625 44.71875 11.242188 44.59375 11.066406 C 44.464844 10.894531 44.25 10.601562 44.109375 10.425781 C 43.96875 10.246094 43.738281 9.957031 43.589844 9.78125 C 43.445312 9.605469 43.191406 9.3125 43.027344 9.128906 C 42.863281 8.945312 42.585938 8.644531 42.410156 8.460938 C 42.234375 8.28125 41.9375 7.984375 41.75 7.804688 C 41.566406 7.625 41.285156 7.359375 41.125 7.21875 C 40.964844 7.074219 40.726562 6.867188 40.59375 6.753906 C 40.460938 6.640625 40.21875 6.441406 40.054688 6.308594 C 39.890625 6.179688 39.59375 5.949219 39.394531 5.800781 C 39.199219 5.652344 38.9375 5.464844 38.8125 5.378906 C 38.691406 5.292969 38.410156 5.105469 38.1875 4.957031 C 37.96875 4.8125 37.621094 4.589844 37.417969 4.46875 C 37.21875 4.347656 36.921875 4.171875 36.761719 4.082031 C 36.601562 3.992188 36.300781 3.832031 36.09375 3.722656 C 35.886719 3.613281 35.542969 3.441406 35.332031 3.339844 C 35.121094 3.242188 34.800781 3.09375 34.621094 3.015625 C 34.441406 2.9375 34.152344 2.816406 33.980469 2.742188 C 33.804688 2.671875 33.496094 2.554688 33.296875 2.476562 C 33.09375 2.402344 32.75 2.28125 32.535156 2.210938 C 32.320312 2.136719 31.972656 2.027344 31.765625 1.96875 C 31.558594 1.90625 31.195312 1.804688 30.960938 1.746094 C 30.722656 1.683594 30.417969 1.609375 30.273438 1.574219 C 30.132812 1.542969 29.859375 1.484375 29.667969 1.445312 C 29.476562 1.40625 29.140625 1.34375 28.921875 1.308594 C 28.707031 1.273438 28.355469 1.21875 28.144531 1.191406 C 27.933594 1.160156 27.652344 1.125 27.519531 1.113281 C 27.386719 1.097656 27.144531 1.074219 26.980469 1.058594 C 26.816406 1.042969 26.496094 1.019531 26.269531 1.007812 C 26.042969 0.992188 25.5 0.980469 25.046875 0.976562 Z M 24.78125 5.203125 C 25.121094 5.203125 25.558594 5.210938 25.757812 5.21875 C 25.957031 5.230469 26.265625 5.25 26.449219 5.261719 C 26.632812 5.277344 26.953125 5.308594 27.160156 5.332031 C 27.367188 5.355469 27.6875 5.398438 27.875 5.425781 C 28.0625 5.453125 28.375 5.507812 28.578125 5.546875 C 28.777344 5.585938 29.09375 5.648438 29.28125 5.691406 C 29.46875 5.734375 29.742188 5.800781 29.890625 5.839844 C 30.035156 5.875 30.300781 5.949219 30.480469 6.003906 C 30.660156 6.054688 30.976562 6.152344 31.183594 6.222656 C 31.394531 6.292969 31.699219 6.402344 31.867188 6.464844 C 32.035156 6.527344 32.328125 6.640625 32.515625 6.71875 C 32.703125 6.796875 32.988281 6.921875 33.144531 6.992188 C 33.300781 7.0625 33.609375 7.210938 33.828125 7.320312 C 34.046875 7.429688 34.355469 7.589844 34.511719 7.675781 C 34.664062 7.761719 34.964844 7.933594 35.175781 8.0625 C 35.390625 8.1875 35.707031 8.390625 35.886719 8.507812 C 36.066406 8.625 36.316406 8.796875 36.441406 8.886719 C 36.570312 8.976562 36.8125 9.15625 36.984375 9.28125 C 37.152344 9.410156 37.421875 9.621094 37.582031 9.753906 C 37.742188 9.886719 37.992188 10.097656 38.136719 10.226562 C 38.28125 10.355469 38.527344 10.578125 38.683594 10.726562 C 38.839844 10.871094 39.105469 11.136719 39.277344 11.3125 C 39.449219 11.488281 39.707031 11.765625 39.851562 11.929688 C 40 12.089844 40.21875 12.347656 40.347656 12.5 C 40.472656 12.652344 40.664062 12.890625 40.773438 13.03125 C 40.882812 13.171875 41.058594 13.40625 41.164062 13.554688 C 41.273438 13.699219 41.488281 14.011719 41.644531 14.25 C 41.800781 14.484375 42.015625 14.820312 42.117188 14.996094 C 42.222656 15.167969 42.375 15.433594 42.457031 15.578125 C 42.539062 15.722656 42.699219 16.023438 42.808594 16.238281 C 42.921875 16.457031 43.082031 16.785156 43.167969 16.976562 C 43.253906 17.164062 43.386719 17.464844 43.460938 17.644531 C 43.539062 17.824219 43.671875 18.164062 43.757812 18.398438 C 43.847656 18.636719 43.964844 18.976562 44.023438 19.152344 C 44.082031 19.332031 44.171875 19.625 44.222656 19.804688 C 44.273438 19.984375 44.355469 20.28125 44.402344 20.464844 C 44.449219 20.648438 44.527344 20.980469 44.574219 21.199219 C 44.621094 21.421875 44.691406 21.804688 44.734375 22.050781 C 44.773438 22.296875 44.832031 22.6875 44.859375 22.917969 C 44.890625 23.148438 44.925781 23.472656 44.9375 23.640625 C 44.953125 23.804688 44.972656 24.058594 44.984375 24.203125 C 44.992188 24.351562 45.003906 24.773438 45.011719 25.140625 C 45.015625 25.550781 45.011719 25.980469 45 26.253906 C 44.988281 26.5 44.96875 26.847656 44.957031 27.027344 C 44.941406 27.207031 44.914062 27.492188 44.894531 27.660156 C 44.875 27.832031 44.839844 28.128906 44.8125 28.320312 C 44.785156 28.515625 44.734375 28.828125 44.699219 29.015625 C 44.667969 29.199219 44.613281 29.484375 44.578125 29.640625 C 44.546875 29.796875 44.480469 30.082031 44.429688 30.277344 C 44.382812 30.46875 44.296875 30.796875 44.238281 31.003906 C 44.179688 31.210938 44.089844 31.507812 44.039062 31.65625 C 43.992188 31.808594 43.902344 32.070312 43.839844 32.238281 C 43.78125 32.410156 43.671875 32.695312 43.601562 32.875 C 43.53125 33.054688 43.398438 33.367188 43.308594 33.570312 C 43.222656 33.773438 43.058594 34.125 42.945312 34.347656 C 42.835938 34.574219 42.660156 34.910156 42.558594 35.09375 C 42.460938 35.28125 42.273438 35.601562 42.152344 35.808594 C 42.027344 36.015625 41.84375 36.3125 41.742188 36.464844 C 41.640625 36.621094 41.476562 36.863281 41.375 37.007812 C 41.277344 37.148438 41.105469 37.386719 40.992188 37.535156 C 40.882812 37.679688 40.699219 37.917969 40.585938 38.058594 C 40.476562 38.199219 40.289062 38.425781 40.171875 38.5625 C 40.054688 38.699219 39.847656 38.933594 39.710938 39.082031 C 39.574219 39.234375 39.300781 39.519531 39.101562 39.714844 C 38.90625 39.914062 38.621094 40.1875 38.472656 40.324219 C 38.320312 40.464844 38.085938 40.671875 37.949219 40.789062 C 37.8125 40.90625 37.574219 41.101562 37.417969 41.226562 C 37.265625 41.351562 37 41.554688 36.835938 41.675781 C 36.671875 41.796875 36.425781 41.976562 36.289062 42.070312 C 36.152344 42.167969 35.921875 42.320312 35.777344 42.414062 C 35.628906 42.507812 35.382812 42.664062 35.226562 42.757812 C 35.070312 42.851562 34.804688 43.007812 34.636719 43.101562 C 34.46875 43.195312 34.203125 43.335938 34.046875 43.417969 C 33.894531 43.5 33.625 43.632812 33.449219 43.714844 C 33.273438 43.796875 32.949219 43.941406 32.722656 44.039062 C 32.496094 44.136719 32.15625 44.273438 31.964844 44.347656 C 31.773438 44.417969 31.433594 44.539062 31.210938 44.613281 C 30.988281 44.6875 30.65625 44.792969 30.476562 44.84375 C 30.292969 44.898438 29.992188 44.980469 29.808594 45.027344 C 29.621094 45.074219 29.292969 45.152344 29.078125 45.199219 C 28.859375 45.242188 28.503906 45.3125 28.28125 45.351562 C 28.058594 45.390625 27.734375 45.4375 27.558594 45.464844 C 27.378906 45.488281 27.082031 45.523438 26.898438 45.539062 C 26.714844 45.558594 26.394531 45.585938 26.195312 45.601562 C 25.992188 45.617188 25.519531 45.632812 25.140625 45.636719 C 24.71875 45.644531 24.285156 45.640625 24.011719 45.628906 C 23.765625 45.617188 23.425781 45.597656 23.25 45.582031 C 23.078125 45.570312 22.796875 45.542969 22.625 45.523438 C 22.457031 45.503906 22.207031 45.472656 22.070312 45.453125 C 21.933594 45.433594 21.683594 45.394531 21.515625 45.367188 C 21.34375 45.339844 21.085938 45.292969 20.941406 45.265625 C 20.792969 45.234375 20.511719 45.175781 20.308594 45.128906 C 20.105469 45.082031 19.808594 45.007812 19.648438 44.964844 C 19.488281 44.921875 19.195312 44.835938 19 44.777344 C 18.800781 44.71875 18.5 44.621094 18.332031 44.5625 C 18.160156 44.503906 17.863281 44.394531 17.664062 44.320312 C 17.464844 44.242188 17.148438 44.113281 16.953125 44.03125 C 16.761719 43.949219 16.460938 43.8125 16.285156 43.730469 C 16.113281 43.648438 15.820312 43.503906 15.636719 43.410156 C 15.453125 43.316406 15.179688 43.167969 15.027344 43.082031 C 14.878906 43 14.621094 42.847656 14.457031 42.75 C 14.289062 42.652344 13.945312 42.429688 13.683594 42.253906 C 13.425781 42.082031 13.0625 41.828125 12.871094 41.6875 C 12.683594 41.546875 12.414062 41.339844 12.273438 41.226562 C 12.132812 41.113281 11.917969 40.933594 11.792969 40.828125 C 11.671875 40.726562 11.449219 40.53125 11.296875 40.394531 C 11.148438 40.257812 10.828125 39.949219 10.585938 39.710938 C 10.347656 39.46875 10.046875 39.15625 9.917969 39.015625 C 9.792969 38.875 9.601562 38.652344 9.492188 38.527344 C 9.382812 38.398438 9.203125 38.179688 9.089844 38.035156 C 8.976562 37.894531 8.804688 37.671875 8.703125 37.539062 C 8.605469 37.40625 8.449219 37.195312 8.359375 37.066406 C 8.269531 36.941406 8.09375 36.679688 7.964844 36.484375 C 7.839844 36.292969 7.644531 35.980469 7.53125 35.789062 C 7.417969 35.601562 7.265625 35.335938 7.1875 35.199219 C 7.113281 35.0625 6.980469 34.816406 6.894531 34.648438 C 6.808594 34.484375 6.671875 34.207031 6.589844 34.03125 C 6.511719 33.859375 6.363281 33.53125 6.269531 33.304688 C 6.171875 33.078125 6.03125 32.726562 5.953125 32.519531 C 5.878906 32.316406 5.761719 31.984375 5.695312 31.785156 C 5.625 31.582031 5.523438 31.242188 5.460938 31.03125 C 5.398438 30.820312 5.304688 30.460938 5.25 30.234375 C 5.195312 30.007812 5.109375 29.628906 5.0625 29.394531 C 5.015625 29.15625 4.949219 28.789062 4.917969 28.578125 C 4.882812 28.367188 4.835938 28.027344 4.8125 27.824219 C 4.789062 27.621094 4.757812 27.316406 4.746094 27.144531 C 4.730469 26.976562 4.710938 26.699219 4.703125 26.527344 C 4.695312 26.359375 4.679688 26.015625 4.675781 25.765625 C 4.667969 25.511719 4.671875 25.082031 4.683594 24.796875 C 4.695312 24.515625 4.714844 24.125 4.726562 23.929688 C 4.742188 23.738281 4.773438 23.40625 4.796875 23.191406 C 4.820312 22.980469 4.863281 22.648438 4.890625 22.457031 C 4.921875 22.261719 4.96875 21.957031 5.003906 21.777344 C 5.035156 21.597656 5.097656 21.292969 5.140625 21.101562 C 5.183594 20.90625 5.257812 20.585938 5.308594 20.390625 C 5.359375 20.191406 5.445312 19.886719 5.496094 19.710938 C 5.546875 19.535156 5.640625 19.234375 5.703125 19.050781 C 5.765625 18.863281 5.878906 18.542969 5.953125 18.339844 C 6.03125 18.136719 6.152344 17.828125 6.226562 17.652344 C 6.296875 17.476562 6.425781 17.1875 6.507812 17.007812 C 6.589844 16.832031 6.734375 16.527344 6.832031 16.332031 C 6.929688 16.140625 7.09375 15.832031 7.195312 15.648438 C 7.296875 15.460938 7.457031 15.1875 7.546875 15.039062 C 7.636719 14.886719 7.792969 14.632812 7.898438 14.476562 C 8 14.320312 8.171875 14.058594 8.285156 13.898438 C 8.394531 13.738281 8.585938 13.476562 8.703125 13.316406 C 8.820312 13.160156 9.011719 12.914062 9.125 12.773438 C 9.238281 12.632812 9.429688 12.402344 9.550781 12.257812 C 9.671875 12.117188 9.882812 11.878906 10.023438 11.726562 C 10.164062 11.578125 10.457031 11.273438 10.675781 11.054688 C 10.894531 10.839844 11.167969 10.574219 11.28125 10.472656 C 11.394531 10.371094 11.59375 10.195312 11.726562 10.078125 C 11.859375 9.964844 12.085938 9.773438 12.238281 9.65625 C 12.386719 9.535156 12.640625 9.335938 12.800781 9.214844 C 12.960938 9.097656 13.210938 8.914062 13.355469 8.8125 C 13.5 8.710938 13.75 8.542969 13.914062 8.4375 C 14.074219 8.335938 14.359375 8.160156 14.539062 8.046875 C 14.722656 7.9375 14.988281 7.785156 15.132812 7.707031 C 15.273438 7.628906 15.566406 7.472656 15.78125 7.363281 C 15.996094 7.253906 16.296875 7.105469 16.449219 7.039062 C 16.597656 6.96875 16.832031 6.867188 16.960938 6.808594 C 17.09375 6.753906 17.277344 6.675781 17.371094 6.640625 C 17.46875 6.601562 17.667969 6.523438 17.816406 6.46875 C 17.96875 6.410156 18.214844 6.324219 18.367188 6.269531 C 18.515625 6.21875 18.800781 6.128906 19 6.066406 C 19.195312 6.007812 19.488281 5.921875 19.648438 5.878906 C 19.808594 5.839844 20.085938 5.769531 20.265625 5.726562 C 20.445312 5.683594 20.730469 5.625 20.898438 5.589844 C 21.066406 5.554688 21.320312 5.507812 21.460938 5.484375 C 21.605469 5.460938 21.851562 5.421875 22.011719 5.398438 C 22.171875 5.375 22.441406 5.34375 22.609375 5.324219 C 22.777344 5.304688 23.070312 5.277344 23.257812 5.261719 C 23.449219 5.246094 23.726562 5.226562 23.882812 5.222656 C 24.039062 5.214844 24.441406 5.207031 24.78125 5.203125 Z M 21.839844 18.089844 C 21.621094 18.085938 21.417969 18.089844 21.386719 18.09375 C 21.351562 18.097656 21.253906 18.105469 21.164062 18.117188 C 21.074219 18.128906 20.90625 18.15625 20.792969 18.175781 C 20.679688 18.199219 20.496094 18.246094 20.378906 18.277344 C 20.265625 18.3125 20.074219 18.378906 19.953125 18.425781 C 19.832031 18.472656 19.632812 18.566406 19.511719 18.628906 C 19.390625 18.691406 19.183594 18.8125 19.054688 18.898438 C 18.925781 18.984375 18.742188 19.121094 18.644531 19.199219 C 18.546875 19.28125 18.363281 19.453125 18.238281 19.585938 C 18.109375 19.714844 17.945312 19.902344 17.871094 20 C 17.796875 20.097656 17.679688 20.265625 17.609375 20.375 C 17.539062 20.488281 17.425781 20.691406 17.355469 20.835938 C 17.285156 20.976562 17.203125 21.164062 17.167969 21.25 C 17.136719 21.335938 17.082031 21.5 17.046875 21.613281 C 17.015625 21.726562 16.96875 21.914062 16.945312 22.023438 C 16.921875 22.132812 16.890625 22.320312 16.875 22.4375 C 16.859375 22.582031 16.847656 22.839844 16.839844 23.21875 C 16.835938 23.53125 16.820312 24.722656 16.804688 25.867188 L 16.78125 27.949219 L 16.746094 28.078125 C 16.730469 28.144531 16.683594 28.265625 16.640625 28.34375 C 16.59375 28.433594 16.527344 28.527344 16.449219 28.609375 C 16.386719 28.675781 16.277344 28.765625 16.210938 28.808594 C 16.144531 28.851562 16.035156 28.902344 15.964844 28.925781 C 15.898438 28.953125 15.777344 28.980469 15.699219 28.992188 C 15.59375 29.003906 15.519531 29.003906 15.417969 28.992188 C 15.339844 28.980469 15.238281 28.957031 15.1875 28.941406 C 15.136719 28.921875 15.0625 28.890625 15.019531 28.871094 C 14.976562 28.847656 14.910156 28.808594 14.871094 28.78125 C 14.832031 28.753906 14.757812 28.691406 14.710938 28.644531 C 14.660156 28.59375 14.589844 28.503906 14.550781 28.441406 C 14.511719 28.378906 14.460938 28.289062 14.441406 28.242188 C 14.421875 28.191406 14.390625 28.109375 14.375 28.050781 L 14.34375 27.953125 L 14.328125 21.554688 L 14.285156 21.410156 C 14.265625 21.332031 14.222656 21.210938 14.195312 21.144531 C 14.167969 21.078125 14.113281 20.972656 14.078125 20.914062 C 14.042969 20.851562 13.992188 20.773438 13.96875 20.742188 C 13.945312 20.707031 13.863281 20.621094 13.792969 20.546875 C 13.71875 20.472656 13.589844 20.367188 13.507812 20.3125 C 13.425781 20.257812 13.300781 20.1875 13.230469 20.15625 C 13.160156 20.128906 13.042969 20.089844 12.96875 20.070312 C 12.898438 20.050781 12.761719 20.03125 12.667969 20.023438 C 12.570312 20.011719 12.425781 20.011719 12.332031 20.023438 C 12.242188 20.03125 12.097656 20.058594 12.015625 20.082031 C 11.933594 20.105469 11.808594 20.152344 11.742188 20.183594 C 11.671875 20.214844 11.554688 20.28125 11.484375 20.332031 C 11.410156 20.382812 11.292969 20.480469 11.222656 20.554688 C 11.152344 20.625 11.058594 20.738281 11.015625 20.800781 C 10.96875 20.867188 10.910156 20.96875 10.882812 21.027344 C 10.851562 21.085938 10.804688 21.203125 10.777344 21.285156 C 10.75 21.367188 10.71875 21.496094 10.707031 21.574219 C 10.695312 21.671875 10.691406 22.644531 10.695312 25.046875 L 10.699219 28.382812 L 10.730469 28.5625 C 10.746094 28.660156 10.78125 28.828125 10.804688 28.9375 C 10.828125 29.042969 10.871094 29.203125 10.894531 29.289062 C 10.921875 29.375 10.964844 29.503906 10.992188 29.574219 C 11.015625 29.644531 11.070312 29.777344 11.113281 29.875 C 11.15625 29.96875 11.234375 30.121094 11.285156 30.214844 C 11.335938 30.3125 11.4375 30.472656 11.503906 30.582031 C 11.574219 30.6875 11.703125 30.859375 11.789062 30.964844 C 11.878906 31.074219 12.023438 31.238281 12.121094 31.332031 C 12.214844 31.425781 12.378906 31.574219 12.484375 31.660156 C 12.589844 31.75 12.761719 31.875 12.867188 31.945312 C 12.972656 32.015625 13.144531 32.121094 13.25 32.179688 C 13.351562 32.234375 13.527344 32.320312 13.632812 32.367188 C 13.742188 32.414062 13.925781 32.480469 14.042969 32.519531 C 14.164062 32.558594 14.339844 32.609375 14.4375 32.632812 C 14.539062 32.660156 14.726562 32.695312 14.859375 32.714844 C 15.058594 32.746094 15.167969 32.753906 15.558594 32.753906 C 15.953125 32.753906 16.058594 32.746094 16.265625 32.714844 C 16.402344 32.695312 16.628906 32.644531 16.773438 32.609375 C 16.914062 32.574219 17.132812 32.507812 17.253906 32.460938 C 17.375 32.417969 17.601562 32.316406 17.757812 32.238281 C 17.914062 32.160156 18.144531 32.027344 18.269531 31.945312 C 18.398438 31.859375 18.585938 31.722656 18.691406 31.636719 C 18.792969 31.550781 18.960938 31.402344 19.058594 31.300781 C 19.160156 31.203125 19.308594 31.039062 19.390625 30.9375 C 19.476562 30.835938 19.613281 30.648438 19.699219 30.519531 C 19.785156 30.390625 19.910156 30.175781 19.976562 30.046875 C 20.042969 29.914062 20.132812 29.714844 20.175781 29.609375 C 20.21875 29.5 20.28125 29.316406 20.3125 29.203125 C 20.34375 29.089844 20.390625 28.914062 20.410156 28.8125 C 20.429688 28.707031 20.460938 28.539062 20.472656 28.433594 C 20.492188 28.28125 20.5 27.738281 20.515625 25.585938 L 20.53125 22.925781 L 20.566406 22.789062 C 20.582031 22.714844 20.625 22.597656 20.65625 22.53125 C 20.691406 22.46875 20.753906 22.367188 20.800781 22.308594 C 20.84375 22.253906 20.925781 22.171875 20.980469 22.128906 C 21.035156 22.082031 21.125 22.023438 21.179688 21.992188 C 21.238281 21.964844 21.324219 21.925781 21.378906 21.90625 C 21.433594 21.886719 21.539062 21.863281 21.613281 21.855469 C 21.707031 21.84375 21.800781 21.84375 21.886719 21.855469 C 21.960938 21.863281 22.074219 21.890625 22.140625 21.914062 C 22.207031 21.9375 22.304688 21.980469 22.355469 22.011719 C 22.410156 22.042969 22.511719 22.128906 22.585938 22.199219 C 22.667969 22.277344 22.746094 22.378906 22.796875 22.464844 C 22.839844 22.539062 22.894531 22.664062 22.921875 22.738281 L 22.964844 22.875 L 22.976562 23.914062 C 22.984375 24.484375 22.996094 25.609375 23 26.417969 C 23.007812 27.222656 23.019531 28.003906 23.03125 28.148438 C 23.039062 28.296875 23.058594 28.492188 23.070312 28.582031 C 23.085938 28.675781 23.117188 28.84375 23.140625 28.953125 C 23.164062 29.0625 23.222656 29.265625 23.269531 29.402344 C 23.3125 29.539062 23.390625 29.746094 23.445312 29.859375 C 23.496094 29.972656 23.578125 30.140625 23.628906 30.226562 C 23.675781 30.316406 23.773438 30.472656 23.84375 30.578125 C 23.910156 30.679688 24.019531 30.832031 24.082031 30.910156 C 24.148438 30.992188 24.3125 31.167969 24.449219 31.308594 C 24.585938 31.445312 24.773438 31.621094 24.871094 31.695312 C 24.96875 31.773438 25.121094 31.882812 25.214844 31.945312 C 25.304688 32.007812 25.453125 32.097656 25.539062 32.144531 C 25.628906 32.195312 25.789062 32.273438 25.898438 32.324219 C 26.007812 32.375 26.191406 32.449219 26.304688 32.488281 C 26.417969 32.527344 26.597656 32.582031 26.707031 32.609375 C 26.816406 32.636719 26.992188 32.675781 27.101562 32.695312 C 27.210938 32.710938 27.402344 32.738281 27.527344 32.746094 C 27.671875 32.761719 27.882812 32.765625 28.085938 32.757812 C 28.261719 32.75 28.492188 32.734375 28.589844 32.722656 C 28.6875 32.707031 28.851562 32.679688 28.949219 32.660156 C 29.046875 32.640625 29.226562 32.59375 29.347656 32.558594 C 29.464844 32.519531 29.65625 32.457031 29.765625 32.410156 C 29.875 32.367188 30.046875 32.289062 30.148438 32.238281 C 30.246094 32.191406 30.410156 32.097656 30.511719 32.035156 C 30.617188 31.972656 30.785156 31.855469 30.890625 31.777344 C 30.992188 31.699219 31.15625 31.566406 31.25 31.480469 C 31.34375 31.394531 31.480469 31.261719 31.550781 31.183594 C 31.621094 31.105469 31.734375 30.972656 31.796875 30.894531 C 31.859375 30.816406 31.96875 30.664062 32.039062 30.558594 C 32.105469 30.457031 32.210938 30.285156 32.265625 30.183594 C 32.324219 30.078125 32.40625 29.90625 32.453125 29.796875 C 32.5 29.6875 32.570312 29.503906 32.609375 29.382812 C 32.648438 29.265625 32.699219 29.085938 32.722656 28.988281 C 32.746094 28.886719 32.78125 28.699219 32.800781 28.574219 C 32.816406 28.449219 32.835938 28.242188 32.84375 28.117188 C 32.847656 27.988281 32.863281 26.769531 32.878906 25.40625 C 32.898438 23.421875 32.910156 22.902344 32.929688 22.808594 C 32.941406 22.742188 32.988281 22.617188 33.03125 22.523438 C 33.097656 22.386719 33.136719 22.335938 33.257812 22.214844 C 33.339844 22.136719 33.449219 22.042969 33.503906 22.011719 C 33.558594 21.980469 33.65625 21.9375 33.722656 21.914062 C 33.789062 21.890625 33.910156 21.863281 33.996094 21.851562 C 34.117188 21.839844 34.175781 21.839844 34.304688 21.863281 C 34.390625 21.878906 34.515625 21.914062 34.582031 21.941406 C 34.644531 21.96875 34.746094 22.023438 34.808594 22.066406 C 34.867188 22.109375 34.964844 22.199219 35.023438 22.261719 C 35.089844 22.335938 35.152344 22.429688 35.203125 22.53125 C 35.246094 22.617188 35.292969 22.734375 35.308594 22.789062 L 35.339844 22.894531 L 35.347656 26.066406 L 35.359375 29.238281 L 35.390625 29.367188 C 35.40625 29.4375 35.449219 29.574219 35.488281 29.667969 C 35.523438 29.765625 35.601562 29.914062 35.660156 30.003906 C 35.71875 30.09375 35.824219 30.222656 35.898438 30.296875 C 35.96875 30.367188 36.09375 30.46875 36.175781 30.523438 C 36.257812 30.578125 36.386719 30.648438 36.460938 30.679688 C 36.539062 30.714844 36.664062 30.757812 36.738281 30.777344 C 36.859375 30.8125 36.921875 30.816406 37.1875 30.816406 L 37.496094 30.816406 L 37.660156 30.769531 C 37.746094 30.746094 37.875 30.703125 37.9375 30.671875 C 38.003906 30.644531 38.117188 30.578125 38.195312 30.527344 C 38.273438 30.476562 38.382812 30.390625 38.441406 30.335938 C 38.5 30.28125 38.59375 30.175781 38.652344 30.101562 C 38.710938 30.023438 38.789062 29.894531 38.828125 29.816406 C 38.871094 29.734375 38.917969 29.617188 38.9375 29.554688 C 38.957031 29.496094 38.988281 29.378906 39 29.296875 C 39.027344 29.164062 39.027344 28.832031 39.019531 26.203125 C 39.015625 24.578125 39.011719 23.15625 39.011719 23.039062 C 39.011719 22.921875 39.003906 22.722656 38.992188 22.601562 C 38.984375 22.480469 38.960938 22.289062 38.941406 22.179688 C 38.921875 22.074219 38.890625 21.917969 38.871094 21.839844 C 38.851562 21.757812 38.816406 21.625 38.792969 21.546875 C 38.769531 21.464844 38.707031 21.296875 38.65625 21.167969 C 38.605469 21.042969 38.511719 20.839844 38.453125 20.722656 C 38.390625 20.605469 38.277344 20.414062 38.199219 20.292969 C 38.121094 20.175781 37.996094 20.007812 37.925781 19.917969 C 37.851562 19.828125 37.707031 19.667969 37.601562 19.558594 C 37.496094 19.453125 37.332031 19.296875 37.238281 19.21875 C 37.144531 19.140625 36.953125 18.996094 36.816406 18.90625 C 36.675781 18.8125 36.457031 18.683594 36.328125 18.617188 C 36.199219 18.550781 36.015625 18.464844 35.921875 18.429688 C 35.828125 18.390625 35.660156 18.332031 35.554688 18.296875 C 35.445312 18.265625 35.246094 18.214844 35.109375 18.183594 C 34.972656 18.15625 34.746094 18.121094 34.605469 18.105469 C 34.414062 18.085938 34.257812 18.082031 33.988281 18.089844 C 33.757812 18.09375 33.542969 18.109375 33.398438 18.132812 C 33.269531 18.152344 33.074219 18.191406 32.960938 18.21875 C 32.847656 18.246094 32.671875 18.296875 32.570312 18.332031 C 32.464844 18.367188 32.316406 18.421875 32.234375 18.453125 C 32.15625 18.488281 32.011719 18.554688 31.917969 18.601562 C 31.824219 18.648438 31.667969 18.734375 31.574219 18.789062 C 31.480469 18.847656 31.335938 18.945312 31.25 19.003906 C 31.164062 19.066406 31.039062 19.164062 30.96875 19.21875 C 30.898438 19.277344 30.742188 19.421875 30.625 19.539062 C 30.507812 19.65625 30.351562 19.832031 30.273438 19.925781 C 30.199219 20.019531 30.074219 20.191406 29.996094 20.308594 C 29.921875 20.425781 29.792969 20.648438 29.714844 20.804688 C 29.636719 20.964844 29.535156 21.191406 29.488281 21.316406 C 29.445312 21.4375 29.382812 21.640625 29.347656 21.769531 C 29.316406 21.894531 29.273438 22.089844 29.257812 22.207031 C 29.238281 22.320312 29.214844 22.527344 29.207031 22.671875 C 29.195312 22.8125 29.179688 23.695312 29.171875 24.632812 C 29.164062 25.574219 29.15625 26.667969 29.152344 27.074219 C 29.152344 27.5 29.144531 27.859375 29.136719 27.9375 C 29.125 28.011719 29.09375 28.132812 29.066406 28.203125 C 29.042969 28.277344 28.984375 28.390625 28.941406 28.457031 C 28.898438 28.519531 28.824219 28.609375 28.773438 28.660156 C 28.722656 28.707031 28.636719 28.777344 28.582031 28.8125 C 28.527344 28.847656 28.421875 28.894531 28.347656 28.921875 C 28.277344 28.949219 28.152344 28.980469 28.074219 28.992188 C 27.964844 29.003906 27.890625 29.003906 27.785156 28.988281 C 27.707031 28.980469 27.582031 28.949219 27.507812 28.921875 C 27.4375 28.894531 27.332031 28.84375 27.277344 28.808594 C 27.222656 28.773438 27.128906 28.695312 27.074219 28.636719 C 27.015625 28.578125 26.933594 28.476562 26.894531 28.410156 C 26.855469 28.34375 26.804688 28.234375 26.78125 28.167969 C 26.761719 28.105469 26.734375 27.992188 26.726562 27.925781 C 26.714844 27.855469 26.703125 27.1875 26.699219 26.441406 C 26.691406 25.699219 26.679688 24.515625 26.671875 23.820312 C 26.660156 22.847656 26.652344 22.507812 26.632812 22.371094 C 26.617188 22.273438 26.589844 22.113281 26.570312 22.011719 C 26.550781 21.910156 26.503906 21.738281 26.472656 21.625 C 26.441406 21.511719 26.378906 21.328125 26.335938 21.222656 C 26.292969 21.113281 26.199219 20.910156 26.128906 20.769531 C 26.058594 20.628906 25.9375 20.421875 25.863281 20.308594 C 25.785156 20.191406 25.660156 20.019531 25.585938 19.925781 C 25.511719 19.832031 25.351562 19.652344 25.226562 19.53125 C 25.105469 19.40625 24.929688 19.246094 24.835938 19.171875 C 24.742188 19.097656 24.570312 18.972656 24.457031 18.898438 C 24.34375 18.820312 24.136719 18.699219 23.996094 18.628906 C 23.855469 18.554688 23.675781 18.472656 23.601562 18.441406 C 23.527344 18.410156 23.398438 18.363281 23.320312 18.335938 C 23.238281 18.308594 23.066406 18.257812 22.933594 18.226562 C 22.800781 18.195312 22.589844 18.152344 22.464844 18.132812 C 22.296875 18.105469 22.125 18.09375 21.839844 18.089844 Z M 21.839844 18.089844 "/>
</g>
</svg>
